<?xml version="1.0" standalone="no"?>
<!DOCTYPE svg PUBLIC "-//W3C//DTD SVG 20010904//EN"
 "http://www.w3.org/TR/2001/REC-SVG-20010904/DTD/svg10.dtd">
<svg version="1.0" xmlns="http://www.w3.org/2000/svg"
 width="1280.000000pt" height="1280.000000pt" viewBox="0 0 1280.000000 1280.000000"
 preserveAspectRatio="xMidYMid meet">

<g transform="translate(0.000000,1280.000000) scale(0.100000,-0.100000)"
fill="#000000" stroke="none">
<path d="M6093 10250 c-186 -11 -563 -60 -756 -100 -504 -102 -904 -238 -1327
-450 -438 -219 -773 -455 -1093 -769 -399 -392 -658 -794 -817 -1271 -85 -257
-127 -489 -136 -760 -23 -650 179 -1266 600 -1825 220 -293 555 -610 886 -837
101 -70 288 -188 297 -188 3 0 17 -8 31 -19 40 -27 250 -135 383 -196 478
-219 1013 -368 1577 -440 791 -100 1600 -35 2358 189 630 186 1218 494 1684
881 126 105 353 328 449 440 399 469 629 961 717 1535 25 163 25 569 0 730
-105 679 -412 1256 -947 1776 -460 446 -1040 791 -1725 1023 -384 131 -780
214 -1260 266 -168 19 -708 27 -921 15z m907 -90 c276 -24 645 -91 941 -170
599 -159 1192 -445 1649 -793 639 -488 1073 -1115 1230 -1782 34 -145 41 -183
55 -325 54 -516 -41 -1035 -275 -1494 -74 -145 -69 -137 -186 -316 -371 -565
-962 -1049 -1678 -1374 -88 -40 -192 -85 -231 -100 -38 -15 -90 -35 -115 -46
-74 -30 -325 -109 -470 -147 -278 -73 -616 -134 -925 -165 -171 -17 -905 -17
-1065 0 -519 56 -962 156 -1385 312 -1287 475 -2196 1392 -2442 2460 -41 183
-54 289 -60 510 -12 465 72 847 276 1260 224 455 527 813 1023 1210 20 17 99
72 175 123 438 297 963 534 1488 672 302 79 679 145 945 165 80 5 165 12 190
14 90 8 738 -3 860 -14z"/>
<path d="M6035 9912 c-121 -8 -222 -16 -224 -17 -1 -2 0 -27 4 -55 6 -43 10
-50 25 -45 10 3 20 2 23 -2 3 -4 8 -63 12 -129 7 -119 7 -122 -14 -129 -18 -5
-21 -14 -21 -57 l0 -50 138 7 c75 4 137 8 138 9 0 0 -2 25 -4 54 -4 47 -6 52
-28 52 -17 0 -25 7 -30 24 -11 45 -2 61 39 64 l38 3 -3 42 c-3 42 -3 42 -43
43 -40 0 -40 1 -43 42 l-3 42 55 0 c46 0 56 -3 61 -20 7 -21 45 -26 93 -14 22
6 22 9 16 78 -3 39 -7 71 -8 71 0 1 -100 -5 -221 -13z"/>
<path d="M6495 9911 c-93 -43 -139 -118 -139 -226 0 -105 48 -182 139 -221 46
-20 174 -23 219 -5 54 21 103 69 126 123 56 129 5 273 -115 329 -55 25 -175
25 -230 0z m149 -94 c10 -7 22 -33 26 -58 10 -52 -3 -173 -20 -194 -19 -22
-77 -19 -90 5 -16 30 -23 103 -15 165 10 82 52 116 99 82z"/>
<path d="M6970 9845 c0 -43 3 -55 16 -55 12 0 14 -7 10 -27 -19 -92 -26 -206
-15 -245 16 -62 63 -103 133 -118 88 -18 143 -6 188 40 40 43 41 49 59 198 9
87 14 102 29 102 13 0 19 11 25 46 3 26 3 50 -2 54 -4 4 -40 11 -80 15 l-71 7
-7 -47 c-4 -25 -3 -51 2 -56 12 -12 -4 -194 -22 -236 -12 -29 -19 -34 -42 -31
-47 5 -54 36 -37 162 8 61 18 112 23 115 4 3 11 27 15 53 8 54 16 49 -111 68
-117 17 -113 18 -113 -45z"/>
<path d="M5418 9841 c-59 -9 -110 -19 -113 -23 -3 -3 -3 -28 1 -55 5 -45 8
-49 28 -46 21 4 23 -1 41 -119 11 -68 19 -125 20 -128 0 -3 -10 -6 -23 -8 -16
-3 -21 -9 -18 -20 2 -9 7 -34 11 -55 5 -34 9 -38 28 -33 12 2 65 12 117 22 52
9 98 20 102 23 4 4 4 27 0 51 -5 32 -12 45 -24 45 -9 0 -19 3 -23 7 -5 5 -35
202 -35 236 0 6 7 12 15 12 16 0 18 15 9 73 -4 20 -12 37 -18 36 -6 -1 -59 -9
-118 -18z"/>
<path d="M7503 9779 c-10 -47 -9 -52 8 -56 23 -6 23 3 -2 -118 -11 -55 -22
-109 -24 -121 -3 -14 -12 -20 -26 -20 -12 1 -23 -6 -24 -14 -2 -8 -6 -31 -10
-51 l-7 -35 88 -17 c48 -10 88 -16 89 -15 1 2 6 24 12 50 9 43 8 48 -9 54 -17
5 -19 12 -13 42 18 97 28 133 35 125 4 -4 36 -78 70 -163 l61 -155 70 -16 c38
-9 72 -13 74 -9 2 3 18 76 36 161 17 85 34 164 36 175 3 15 10 20 23 17 15 -4
21 3 29 34 19 67 18 68 -71 85 -46 8 -86 13 -90 9 -3 -3 -9 -27 -13 -53 -6
-42 -5 -48 10 -48 14 0 16 -6 11 -32 -4 -18 -10 -48 -13 -65 -3 -18 -9 -33
-13 -33 -4 0 -31 61 -60 135 -47 118 -57 136 -79 141 -15 4 -60 15 -103 25
-42 10 -78 19 -81 19 -2 0 -9 -23 -14 -51z"/>
<path d="M4985 9744 c-205 -52 -286 -77 -281 -90 3 -7 8 -28 11 -48 5 -25 13
-36 28 -38 17 -2 25 -18 43 -84 34 -128 39 -164 20 -164 -19 0 -20 -10 -4 -61
7 -25 17 -39 28 -39 14 0 212 49 217 53 1 1 -5 25 -12 52 -9 35 -17 49 -28 47
-9 -1 -19 10 -26 29 -17 48 -14 57 20 64 27 6 34 2 67 -37 20 -23 53 -61 73
-82 l36 -39 64 17 c35 9 69 19 75 21 8 2 9 18 1 55 -7 38 -14 50 -24 45 -9 -3
-33 13 -61 40 -45 45 -46 46 -30 73 28 49 30 80 9 128 -32 72 -99 89 -226 58z
m63 -140 c4 -36 -10 -50 -60 -59 -36 -7 -37 -6 -49 35 -16 51 -5 61 61 58 42
-3 45 -5 48 -34z"/>
<path d="M8132 9635 c-9 -35 -9 -50 0 -64 10 -16 6 -38 -22 -123 -38 -115 -46
-129 -65 -122 -18 7 -48 -88 -31 -97 6 -4 78 -30 159 -58 197 -68 245 -68 321
0 48 41 76 98 83 163 10 101 -36 185 -128 232 -37 18 -291 114 -303 114 -1 0
-7 -20 -14 -45z m218 -140 c16 -8 34 -24 40 -34 30 -56 -14 -194 -65 -207 -39
-10 -98 4 -91 22 3 8 20 61 37 117 42 134 34 125 79 102z"/>
<path d="M4515 9613 c-38 -14 -71 -27 -73 -28 -9 -8 34 -105 44 -101 14 5 84
-186 84 -227 0 -19 -7 -31 -25 -39 -42 -19 -62 8 -114 150 -17 47 -25 84 -20
89 7 7 -12 78 -27 101 -1 2 -205 -77 -210 -82 -1 0 5 -23 14 -49 12 -38 19
-47 33 -44 15 4 24 -10 49 -77 58 -157 91 -201 161 -212 82 -14 205 50 234
120 16 37 9 105 -17 170 -46 118 -51 139 -35 150 12 10 12 17 0 59 -7 26 -17
47 -21 46 -4 0 -38 -12 -77 -26z"/>
<path d="M8770 9384 c-18 -41 -18 -48 -5 -58 13 -9 0 -26 -75 -104 -68 -70
-95 -92 -109 -87 -14 4 -22 -4 -38 -43 l-21 -49 74 -36 c41 -21 76 -37 79 -37
2 0 13 18 24 40 15 32 17 41 6 50 -17 14 -11 31 15 48 17 10 28 8 70 -13 46
-23 50 -28 50 -60 0 -32 -2 -35 -24 -29 -20 5 -25 0 -40 -37 -9 -23 -16 -43
-14 -44 2 -2 48 -25 104 -53 l101 -51 22 46 c19 40 20 46 6 57 -13 10 -14 26
-3 144 11 121 14 133 30 128 14 -3 24 7 42 43 l24 47 -144 72 c-79 40 -146 72
-149 72 -2 0 -13 -21 -25 -46z m95 -181 c-4 -32 -11 -62 -15 -67 -11 -11 -70
12 -70 27 0 10 79 97 88 97 2 0 1 -26 -3 -57z"/>
<path d="M3922 9352 c-103 -61 -112 -69 -107 -92 8 -39 23 -165 19 -169 -1 -2
-34 23 -72 54 -39 32 -74 57 -79 57 -4 -1 -58 -31 -120 -68 l-112 -66 22 -45
c17 -35 26 -43 42 -39 18 5 29 -11 79 -101 45 -81 56 -110 49 -122 -8 -12 -5
-27 9 -56 11 -22 22 -42 23 -43 5 -5 134 68 141 79 3 5 -5 29 -17 54 -18 35
-25 42 -39 35 -14 -7 -27 10 -79 101 -35 61 -61 113 -58 116 3 3 69 -50 147
-116 78 -67 148 -121 155 -121 7 0 22 8 33 18 20 17 20 17 -9 182 -43 253 -42
258 38 115 57 -103 64 -120 50 -129 -14 -9 -13 -15 10 -57 l26 -46 91 55 c50
30 95 58 99 62 5 4 -1 26 -13 49 -16 32 -26 41 -42 39 -17 -2 -31 16 -81 106
-53 95 -59 110 -45 120 14 10 13 16 -9 54 -14 23 -28 42 -32 42 -3 -1 -57 -31
-119 -68z"/>
<path d="M6195 9333 c-606 -37 -1056 -132 -1525 -321 -763 -307 -1331 -790
-1620 -1377 -254 -514 -269 -1056 -45 -1595 154 -371 487 -764 885 -1047 539
-382 1213 -629 1947 -713 411 -47 760 -47 1171 0 1284 147 2372 801 2793 1680
137 284 192 525 192 835 0 319 -71 604 -220 885 -259 489 -671 873 -1263 1178
-540 279 -1143 436 -1810 472 -171 9 -386 11 -505 3z m620 -88 c1175 -90 2213
-606 2747 -1365 80 -114 164 -265 212 -382 14 -35 13 -42 -6 -39 -5 0 -8 -4
-8 -10 0 -6 8 -9 19 -6 16 4 24 -11 54 -107 62 -191 81 -322 81 -546 0 -160
-4 -216 -22 -314 -173 -914 -1037 -1680 -2257 -2000 -475 -125 -1039 -179
-1515 -146 -964 69 -1797 378 -2395 891 -137 118 -328 319 -398 419 -199 284
-297 494 -363 776 -27 114 -29 130 -29 374 0 246 1 259 29 375 111 467 364
863 777 1211 406 344 955 610 1554 754 258 62 457 91 840 123 116 10 505 5
680 -8z"/>
<path d="M5343 8143 c-7 -2 -13 -9 -13 -14 0 -6 9 -5 21 2 12 6 35 8 51 5 18
-3 27 -2 23 4 -6 10 -60 12 -82 3z"/>
<path d="M5236 8034 c-4 -10 -1 -14 6 -12 15 5 23 28 10 28 -5 0 -13 -7 -16
-16z"/>
<path d="M5456 8005 c4 -8 8 -15 10 -15 2 0 4 7 4 15 0 8 -4 15 -10 15 -5 0
-7 -7 -4 -15z"/>
<path d="M6878 8003 c7 -3 16 -2 19 1 4 3 -2 6 -13 5 -11 0 -14 -3 -6 -6z"/>
<path d="M5115 7970 c-3 -10 -20 -34 -38 -52 -41 -43 -54 -66 -63 -114 -8 -48
-33 -92 -55 -99 -10 -3 -20 -12 -23 -20 -4 -11 -21 -15 -61 -15 -34 0 -55 -4
-55 -11 0 -7 14 -10 35 -7 19 2 35 0 35 -4 0 -11 38 -10 42 1 2 6 22 14 45 19
l43 10 -5 -77 c-2 -42 -2 -68 1 -59 3 9 15 18 27 20 15 2 24 13 30 41 5 21 15
37 23 37 8 0 14 6 14 13 0 7 9 20 20 30 20 16 20 16 20 -22 0 -63 11 -99 31
-104 25 -7 25 -37 0 -37 -11 0 -22 -9 -26 -20 -9 -29 5 -90 21 -90 10 0 14
-15 14 -55 0 -42 -3 -55 -15 -55 -22 0 -18 -17 5 -23 17 -4 20 0 20 27 0 18
11 55 25 81 22 40 24 53 15 78 -13 38 -13 87 0 87 6 0 10 14 10 31 0 17 7 37
15 46 12 11 15 34 13 94 -2 75 -3 79 -25 79 -14 0 -23 -6 -23 -15 0 -8 -9 -15
-20 -15 -11 0 -20 6 -20 14 0 8 -16 16 -41 20 l-41 7 7 77 c4 42 11 79 16 80
12 5 12 22 0 22 -5 0 -12 -9 -16 -20z"/>
<path d="M6736 7982 c-2 -4 13 -6 35 -4 21 2 39 6 39 8 0 7 -69 4 -74 -4z"/>
<path d="M6915 7980 c3 -5 23 -10 43 -9 33 1 34 2 12 9 -36 12 -62 12 -55 0z"/>
<path d="M7065 7980 c-3 -6 5 -10 19 -10 14 0 28 5 31 10 3 6 -5 10 -19 10
-14 0 -28 -4 -31 -10z"/>
<path d="M7185 7980 c19 -8 93 -14 84 -6 -2 2 -26 6 -54 9 -32 4 -43 3 -30 -3z"/>
<path d="M5611 7964 c0 -11 3 -14 6 -6 3 7 2 16 -1 19 -3 4 -6 -2 -5 -13z"/>
<path d="M5525 7960 c3 -5 10 -10 16 -10 5 0 9 5 9 10 0 6 -7 10 -16 10 -8 0
-12 -4 -9 -10z"/>
<path d="M6680 7960 c0 -5 5 -10 10 -10 6 0 10 5 10 10 0 6 -4 10 -10 10 -5 0
-10 -4 -10 -10z"/>
<path d="M6790 7955 c0 -9 -7 -18 -15 -21 -17 -7 -20 -35 -4 -51 8 -8 8 -13 0
-17 -20 -13 -12 -25 21 -34 17 -4 36 -17 42 -27 6 -11 14 -22 17 -25 3 -3 10
-27 15 -53 11 -58 25 -59 41 -3 20 66 17 86 -12 86 -14 0 -25 5 -25 11 0 7 -9
20 -21 30 -19 16 -27 43 -28 97 -1 25 -31 32 -31 7z"/>
<path d="M7162 7933 c4 -52 28 -56 28 -4 0 30 -4 41 -16 41 -11 0 -14 -9 -12
-37z"/>
<path d="M7280 7960 c0 -5 14 -10 30 -10 17 0 30 5 30 10 0 6 -13 10 -30 10
-16 0 -30 -4 -30 -10z"/>
<path d="M7401 7954 c0 -11 3 -14 6 -6 3 7 2 16 -1 19 -3 4 -6 -2 -5 -13z"/>
<path d="M7450 7960 c0 -6 27 -10 60 -10 33 0 60 4 60 10 0 6 -27 10 -60 10
-33 0 -60 -4 -60 -10z"/>
<path d="M5437 7930 c-3 -11 -1 -20 4 -20 5 0 9 9 9 20 0 11 -2 20 -4 20 -2 0
-6 -9 -9 -20z"/>
<path d="M5630 7936 c0 -2 9 -6 20 -9 11 -3 20 -1 20 4 0 5 -9 9 -20 9 -11 0
-20 -2 -20 -4z"/>
<path d="M5685 7910 c3 -5 8 -10 11 -10 2 0 4 5 4 10 0 6 -5 10 -11 10 -5 0
-7 -4 -4 -10z"/>
<path d="M6560 7903 c-13 -15 -12 -16 4 -10 10 4 22 7 27 7 5 0 9 5 9 10 0 15
-23 11 -40 -7z"/>
<path d="M7417 7882 c-9 -21 -17 -46 -17 -55 0 -8 -4 -17 -10 -19 -11 -3 -14
-40 -12 -115 2 -40 6 -53 17 -53 12 0 15 13 15 59 0 40 5 63 15 71 8 7 15 20
15 30 0 10 7 20 15 24 8 3 15 12 15 21 0 8 15 24 33 35 28 17 29 20 10 20 -12
0 -25 -4 -28 -10 -10 -17 -25 -11 -25 10 0 33 -25 23 -43 -18z"/>
<path d="M7590 7911 c0 -5 7 -11 14 -14 10 -4 13 -1 9 9 -6 15 -23 19 -23 5z"/>
<path d="M6525 7900 c-3 -5 -13 -10 -21 -10 -8 0 -24 -9 -36 -20 -28 -26 -101
-36 -169 -21 -30 6 -95 10 -145 10 l-89 -2 85 -7 c47 -4 118 -10 158 -15 72
-7 74 -8 67 -32 -5 -23 -5 -24 10 -9 25 24 65 21 65 -5 0 -18 2 -19 15 -9 8 7
15 23 15 36 0 12 8 29 18 36 18 13 48 58 38 58 -3 0 -8 -4 -11 -10z"/>
<path d="M5705 7870 c3 -5 8 -10 11 -10 2 0 4 5 4 10 0 6 -5 10 -11 10 -5 0
-7 -4 -4 -10z"/>
<path d="M5945 7850 c-3 -5 -17 -10 -31 -10 -15 0 -24 -6 -24 -15 0 -8 -4 -15
-10 -15 -5 0 -10 -9 -10 -20 0 -27 18 -25 22 3 2 16 11 23 31 25 15 2 27 8 27
13 0 5 11 9 25 9 14 0 25 -4 25 -10 0 -16 18 -12 40 10 l20 20 -54 0 c-30 0
-58 -4 -61 -10z"/>
<path d="M7667 7839 c6 -22 23 -26 23 -5 0 8 -6 16 -14 19 -10 4 -12 0 -9 -14z"/>
<path d="M5612 7813 c-1 -23 -5 -48 -8 -56 -3 -10 2 -17 15 -21 12 -3 31 -9
43 -12 20 -6 21 -5 9 10 -7 9 -22 16 -32 16 -15 0 -19 10 -22 53 -3 47 -3 48
-5 10z"/>
<path d="M5785 7830 c-3 -5 3 -10 14 -10 12 0 21 5 21 10 0 6 -6 10 -14 10 -8
0 -18 -4 -21 -10z"/>
<path d="M5855 7830 c3 -5 8 -10 11 -10 2 0 4 5 4 10 0 6 -5 10 -11 10 -5 0
-7 -4 -4 -10z"/>
<path d="M7760 7801 c0 -6 5 -13 10 -16 6 -3 10 1 10 9 0 9 -4 16 -10 16 -5 0
-10 -4 -10 -9z"/>
<path d="M4240 7790 c0 -5 5 -10 10 -10 6 0 10 5 10 10 0 6 -4 10 -10 10 -5 0
-10 -4 -10 -10z"/>
<path d="M7583 7775 c-16 -17 -17 -35 -3 -35 6 0 10 -7 10 -15 0 -8 -7 -15
-15 -15 -8 0 -15 -9 -15 -20 0 -11 -4 -20 -10 -20 -5 0 -10 -13 -10 -30 0 -16
5 -30 10 -30 6 0 10 7 10 15 0 8 7 15 15 15 8 0 15 7 15 15 0 8 5 15 10 15 6
0 10 -13 10 -30 0 -16 -4 -30 -10 -30 -5 0 -10 -11 -10 -25 0 -14 5 -25 10
-25 6 0 10 9 10 20 0 23 28 27 36 5 3 -8 -2 -22 -11 -32 -12 -12 -14 -18 -6
-21 21 -7 61 8 61 23 0 8 5 15 10 15 18 0 11 35 -10 50 -11 8 -20 26 -20 41 0
15 -7 32 -15 39 -8 7 -15 21 -15 31 0 11 -4 19 -9 19 -5 0 -13 9 -16 20 -7 23
-15 25 -32 5z"/>
<path d="M4166 7764 c-9 -8 -16 -22 -16 -29 0 -9 -6 -12 -15 -9 -11 5 -17 -3
-21 -25 -4 -17 -10 -31 -15 -31 -5 0 -9 -6 -9 -14 0 -8 -7 -16 -15 -20 -24 -9
-17 -26 10 -26 18 0 25 5 25 20 0 11 7 20 15 20 8 0 15 4 15 9 0 5 6 11 14 14
10 4 12 0 9 -14 -4 -15 -2 -18 11 -13 9 3 16 12 16 20 0 8 7 14 15 14 8 0 15
7 15 16 0 8 5 12 10 9 6 -3 10 -19 10 -36 0 -18 5 -29 14 -29 8 0 17 -8 19
-17 4 -17 5 -17 6 0 1 13 10 17 40 17 29 0 41 5 45 18 3 9 3 0 0 -22 -5 -33
-3 -38 11 -32 9 3 19 6 21 6 2 0 4 7 4 15 0 8 6 15 13 15 15 0 41 56 32 70 -3
5 -26 10 -51 10 -24 0 -44 5 -44 10 0 6 -11 10 -24 10 -14 0 -28 -4 -31 -10
-3 -5 -26 -10 -51 -10 -37 0 -44 3 -44 20 0 12 7 20 18 21 14 0 14 2 -3 9 -28
12 -32 12 -49 -6z m161 -90 c-3 -3 -12 -4 -19 -1 -8 3 -5 6 6 6 11 1 17 -2 13
-5z m-47 -20 c0 -8 -5 -12 -10 -9 -6 4 -8 11 -5 16 9 14 15 11 15 -7z"/>
<path d="M4705 7750 c-3 -6 5 -10 19 -10 13 0 26 -6 29 -12 2 -7 7 -10 11 -7
3 3 4 14 0 23 -7 17 -49 22 -59 6z"/>
<path d="M4530 7740 c-8 -5 -11 -13 -6 -17 5 -4 11 -2 13 5 3 6 13 12 23 12
10 0 20 -6 23 -12 2 -7 8 -10 12 -6 23 21 -34 38 -65 18z"/>
<path d="M3535 7730 c-16 -4 -46 -8 -66 -9 -28 -1 -38 -6 -42 -21 -3 -14 -14
-20 -31 -20 -16 0 -26 -6 -26 -14 0 -8 -7 -16 -15 -20 -8 -3 -15 -12 -15 -21
0 -15 16 -20 54 -17 12 2 16 -3 12 -13 -3 -8 -1 -15 4 -15 5 0 12 16 16 35 7
38 32 52 79 43 28 -6 49 14 59 55 3 15 5 26 4 26 -2 -1 -16 -5 -33 -9z m-142
-98 c-3 -12 -9 -22 -14 -22 -14 0 -11 38 4 43 16 6 17 5 10 -21z"/>
<path d="M7795 7730 c3 -5 13 -10 21 -10 8 0 14 5 14 10 0 6 -9 10 -21 10 -11
0 -17 -4 -14 -10z"/>
<path d="M8558 7733 c7 -3 16 -2 19 1 4 3 -2 6 -13 5 -11 0 -14 -3 -6 -6z"/>
<path d="M8478 7723 c7 -3 16 -2 19 1 4 3 -2 6 -13 5 -11 0 -14 -3 -6 -6z"/>
<path d="M8608 7723 c7 -3 16 -2 19 1 4 3 -2 6 -13 5 -11 0 -14 -3 -6 -6z"/>
<path d="M8823 7722 c-13 -2 -23 -8 -23 -13 0 -41 -79 -53 -99 -15 -9 16 -19
22 -32 19 -26 -7 -59 -55 -59 -86 0 -14 -6 -32 -13 -39 -8 -7 -17 -25 -20 -40
-6 -23 -14 -27 -57 -33 -49 -7 -50 -8 -50 -42 0 -33 -18 -63 -39 -63 -5 0 -11
-15 -13 -32 -2 -25 -8 -34 -25 -36 -28 -4 -31 -32 -4 -32 10 0 21 9 24 20 3
11 13 20 22 20 18 0 45 23 45 38 0 6 8 24 18 41 12 23 24 31 45 31 25 0 30 7
26 36 -2 15 29 24 79 24 59 0 82 15 82 53 0 25 20 37 64 37 10 0 25 8 32 18
11 14 12 8 11 -42 -1 -39 3 -61 11 -64 7 -2 12 -10 12 -18 0 -8 10 -14 23 -14
31 0 77 -22 77 -37 0 -7 9 -13 19 -13 23 0 31 -19 31 -68 0 -73 -11 -112 -32
-112 -10 0 -22 -8 -25 -17 -4 -10 -11 -21 -17 -25 -6 -4 5 -8 24 -8 36 1 70
19 70 38 0 6 9 13 19 17 10 3 21 15 24 25 4 16 14 20 44 20 44 1 62 13 83 55
16 32 47 65 62 65 4 0 8 9 8 20 0 13 9 22 25 26 13 3 27 15 30 25 4 11 16 19
28 19 54 0 67 10 67 51 0 27 4 39 14 39 8 0 16 6 19 13 3 8 11 4 26 -12 11
-13 21 -20 21 -14 0 5 -16 26 -35 46 -19 20 -35 43 -35 51 0 10 -14 16 -42 20
-51 6 -533 13 -565 8z"/>
<path d="M3650 7710 c0 -5 9 -10 20 -10 11 0 20 5 20 10 0 6 -9 10 -20 10 -11
0 -20 -4 -20 -10z"/>
<path d="M7846 7703 c5 -5 12 -12 16 -18 4 -6 8 -2 8 8 0 9 -7 17 -17 17 -9 0
-12 -3 -7 -7z"/>
<path d="M3705 7680 c3 -5 8 -10 11 -10 2 0 4 5 4 10 0 6 -5 10 -11 10 -5 0
-7 -4 -4 -10z"/>
<path d="M8380 7681 c0 -5 -18 -11 -40 -15 -23 -3 -43 -13 -46 -21 -8 -20 -84
-21 -84 -1 0 22 -48 27 -55 5 -5 -14 -16 -19 -41 -19 -23 0 -34 -5 -34 -14 0
-8 -13 -17 -30 -21 -16 -4 -30 -13 -30 -21 0 -8 -4 -14 -9 -14 -5 0 -11 -13
-14 -30 -6 -25 -11 -30 -37 -30 -23 0 -30 -4 -30 -20 0 -14 -7 -20 -22 -20
-47 0 -67 -12 -70 -39 -2 -18 -10 -27 -25 -29 -13 -2 -23 -10 -23 -19 0 -11 6
-14 25 -9 23 6 25 3 25 -25 0 -33 21 -37 26 -4 2 10 10 22 18 27 9 5 16 15 16
22 0 24 37 56 64 56 14 0 26 4 26 10 0 11 62 80 72 80 14 0 8 -67 -7 -80 -8
-7 -15 -17 -15 -22 0 -6 7 -5 16 3 12 10 17 10 23 0 5 -7 24 -13 42 -14 28 -2
35 2 37 21 2 12 10 22 17 22 8 0 16 8 20 19 10 33 52 74 69 68 23 -9 20 -37
-4 -37 -11 0 -24 -8 -27 -17 -4 -10 -9 -20 -13 -23 -10 -8 -70 -135 -70 -148
0 -7 -7 -12 -15 -12 -8 0 -17 -14 -21 -35 -3 -19 -10 -35 -15 -35 -4 0 -13
-17 -18 -37 -14 -51 -14 -57 4 -39 8 8 15 19 15 25 0 6 11 11 25 11 20 0 25 6
31 37 13 68 104 172 104 119 0 -9 -4 -16 -10 -16 -5 0 -10 -18 -10 -41 0 -33
3 -40 16 -35 9 3 18 6 20 6 2 0 4 7 4 15 0 7 6 18 14 22 23 14 36 50 36 102 0
39 4 51 15 51 9 0 15 9 15 25 0 16 -6 25 -15 25 -28 0 -14 75 16 83 14 4 19
14 19 41 0 20 5 36 10 36 6 0 10 5 10 10 0 6 -4 10 -10 10 -5 0 -10 -4 -10 -9z"/>
<path d="M6540 7670 c0 -5 5 -10 10 -10 6 0 10 5 10 10 0 6 -4 10 -10 10 -5 0
-10 -4 -10 -10z"/>
<path d="M3750 7660 c36 -11 50 -11 50 0 0 6 -17 10 -37 9 -34 -1 -35 -2 -13
-9z"/>
<path d="M5750 7661 c0 -5 -10 -11 -22 -13 -15 -2 -24 -11 -26 -25 -4 -25 -32
-32 -32 -8 0 8 -9 15 -19 15 -11 0 -26 3 -35 6 -12 4 -16 0 -16 -15 0 -12 -4
-21 -9 -21 -6 0 -11 -17 -13 -37 -2 -30 -8 -38 -28 -43 -21 -5 -25 -12 -27
-44 -1 -28 2 -35 10 -27 6 6 24 11 39 11 20 0 28 5 28 18 1 16 1 16 14 0 7
-10 20 -18 29 -18 8 0 18 -6 20 -12 4 -8 6 -7 6 3 1 9 12 20 26 23 15 4 25 14
25 24 0 10 4 22 9 28 5 5 11 25 13 44 2 21 8 34 16 33 6 -2 12 3 12 10 0 6 3
22 6 35 5 16 2 22 -10 22 -9 0 -16 -4 -16 -9z"/>
<path d="M7900 7655 c0 -20 116 -22 123 -2 4 10 7 10 18 0 18 -18 30 -16 23 2
-7 17 -64 21 -64 5 0 -5 -16 -10 -35 -10 -19 0 -35 5 -35 10 0 6 -7 10 -15 10
-8 0 -15 -7 -15 -15z"/>
<path d="M6520 7652 c0 -7 -7 -12 -15 -12 -8 0 -15 -7 -15 -15 0 -23 27 -18
33 7 4 12 4 24 2 27 -3 2 -5 -1 -5 -7z"/>
<path d="M4860 7620 c0 -5 7 -10 15 -10 8 0 15 5 15 10 0 6 -7 10 -15 10 -8 0
-15 -4 -15 -10z"/>
<path d="M3223 7585 c-21 -22 -31 -55 -18 -55 10 0 51 44 58 63 9 25 -14 20
-40 -8z"/>
<path d="M3490 7590 c0 -11 5 -20 10 -20 6 0 10 9 10 20 0 11 -4 20 -10 20 -5
0 -10 -9 -10 -20z"/>
<path d="M3820 7600 c0 -5 5 -10 10 -10 6 0 10 5 10 10 0 6 -4 10 -10 10 -5 0
-10 -4 -10 -10z"/>
<path d="M6484 7582 c-12 -10 -26 -28 -33 -40 -6 -12 -18 -22 -26 -22 -11 0
-15 -12 -15 -45 0 -35 3 -43 15 -39 8 4 18 24 21 45 6 32 12 41 40 51 28 10
34 17 34 40 0 32 -7 34 -36 10z"/>
<path d="M3288 7583 c6 -2 18 -2 25 0 6 3 1 5 -13 5 -14 0 -19 -2 -12 -5z"/>
<path d="M3851 7564 c6 -8 17 -14 24 -14 7 0 16 -11 19 -25 6 -23 8 -24 21
-11 8 8 15 24 15 36 0 19 4 21 26 17 18 -3 22 -1 15 6 -7 7 -21 7 -43 0 -18
-5 -46 -6 -61 -2 -24 6 -26 5 -16 -7z"/>
<path d="M6045 7570 c-3 -5 -4 -10 0 -10 3 0 1 -9 -5 -20 -9 -18 -8 -20 15
-20 14 0 25 5 25 10 0 6 5 10 11 10 11 0 39 24 39 34 0 10 -79 6 -85 -4z"/>
<path d="M4007 7550 c-13 -15 -14 -20 -3 -20 7 0 16 9 19 20 3 11 4 20 3 20
-1 0 -9 -9 -19 -20z"/>
<path d="M9500 7560 c0 -5 7 -10 15 -10 8 0 15 5 15 10 0 6 -7 10 -15 10 -8 0
-15 -4 -15 -10z"/>
<path d="M3140 7540 c-12 -8 -9 -10 12 -10 15 0 30 5 33 10 8 13 -25 13 -45 0z"/>
<path d="M3370 7530 c0 -5 5 -10 10 -10 6 0 10 5 10 10 0 6 -4 10 -10 10 -5 0
-10 -4 -10 -10z"/>
<path d="M5960 7485 c0 -14 -5 -25 -11 -25 -5 0 -7 -4 -4 -10 9 -15 25 -12 25
5 0 8 7 15 15 15 8 0 15 9 15 20 0 13 -7 20 -20 20 -15 0 -20 -7 -20 -25z"/>
<path d="M7618 7478 c-2 -15 -11 -24 -25 -26 -15 -2 -24 -11 -25 -25 0 -12 -2
-26 -3 -32 -2 -5 -3 -17 -4 -26 -1 -15 -43 -35 -63 -31 -5 1 -8 -7 -8 -19 0
-15 4 -19 16 -15 9 3 29 6 45 6 19 0 29 5 29 15 0 8 6 15 13 15 9 0 17 26 25
77 7 42 10 78 8 80 -2 3 -6 -6 -8 -19z"/>
<path d="M9590 7491 c0 -5 7 -12 16 -15 22 -9 24 -8 24 9 0 8 -9 15 -20 15
-11 0 -20 -4 -20 -9z"/>
<path d="M9650 7454 c0 -7 7 -20 15 -28 14 -14 14 -18 0 -39 -15 -24 -15 -24
10 -20 14 3 25 9 25 14 0 5 7 9 15 9 9 0 15 9 15 25 0 16 -6 25 -15 25 -8 0
-15 4 -15 9 0 5 -11 11 -25 13 -16 4 -25 1 -25 -8z"/>
<path d="M3826 7443 c-4 -13 -12 -23 -17 -23 -23 0 -56 -57 -51 -87 2 -7 -4
-13 -12 -13 -10 0 -16 -18 -21 -61 -4 -33 -4 -63 -1 -66 3 -4 6 -1 6 5 0 7 6
12 14 12 17 0 26 22 26 66 0 19 4 34 10 34 11 0 40 64 40 90 0 10 5 20 11 22
6 2 9 13 7 23 -4 19 -5 18 -12 -2z"/>
<path d="M3937 7373 c4 -28 13 -55 24 -66 11 -10 19 -14 19 -9 0 6 9 12 20 15
25 7 26 23 1 30 -14 3 -21 15 -23 38 -2 26 -8 35 -24 37 -20 3 -21 0 -17 -45z"/>
<path d="M6402 7390 c0 -14 2 -19 5 -12 2 6 2 18 0 25 -3 6 -5 1 -5 -13z"/>
<path d="M6280 7385 c0 -8 -6 -15 -14 -15 -8 0 -16 -6 -19 -12 -6 -20 4 -48
17 -47 37 5 45 -2 52 -47 3 -25 13 -48 21 -51 19 -8 29 5 15 19 -7 7 -12 33
-12 59 0 28 -5 50 -12 53 -10 5 -10 7 0 12 6 3 12 14 12 25 0 14 -7 19 -30 19
-20 0 -30 -5 -30 -15z"/>
<path d="M6980 7340 c0 -22 -4 -40 -10 -40 -5 0 -10 -13 -10 -30 0 -41 11 -38
38 13 24 45 28 67 12 67 -5 0 -10 7 -10 15 0 8 -4 15 -10 15 -5 0 -10 -18 -10
-40z"/>
<path d="M4748 7343 c-16 -2 -28 -10 -28 -18 0 -7 -16 -16 -35 -19 -21 -4 -35
-13 -35 -21 0 -8 -6 -15 -14 -15 -8 0 -18 -9 -21 -20 -3 -11 -13 -20 -21 -20
-8 0 -14 -4 -14 -10 0 -5 -11 -10 -25 -10 -15 0 -25 -6 -25 -15 0 -8 -17 -19
-39 -26 -22 -7 -43 -19 -46 -27 -4 -12 5 -14 57 -10 35 3 64 10 66 16 2 7 12
12 23 12 10 0 19 3 19 8 0 4 15 8 34 9 34 1 86 28 86 43 0 5 -8 6 -19 3 -29
-8 -33 13 -6 31 14 9 25 25 25 36 0 13 7 20 19 20 10 0 21 9 24 20 3 11 4 19
4 19 -1 -1 -14 -4 -29 -6z"/>
<path d="M7763 7343 c-15 -5 -18 -33 -4 -33 5 0 11 9 14 20 3 11 4 20 4 19 -1
0 -8 -3 -14 -6z"/>
<path d="M5961 7333 c0 -7 -15 -13 -32 -13 -17 0 -36 -6 -44 -12 -7 -7 -25
-22 -39 -32 -14 -10 -26 -27 -26 -36 0 -11 -10 -20 -28 -23 -22 -5 -30 -14
-41 -51 l-13 -46 -54 0 c-37 0 -54 -4 -54 -12 0 -10 -66 -13 -298 -12 -285 0
-382 7 -382 25 0 5 7 9 15 9 24 0 55 32 55 57 0 28 -26 31 -35 4 -3 -11 -19
-21 -36 -25 -17 -3 -38 -13 -47 -22 -10 -11 -17 -13 -20 -5 -5 14 -52 14 -89
0 -45 -17 -183 -39 -249 -39 -78 0 -222 18 -254 32 -14 6 -38 14 -55 18 -16 4
-38 11 -47 15 -10 4 -18 3 -18 -2 0 -5 21 -15 48 -22 26 -7 56 -19 67 -25 38
-23 170 -41 292 -40 112 1 142 5 242 36 20 6 36 7 40 1 8 -13 31 -21 136 -49
85 -22 107 -24 375 -24 247 0 295 -3 360 -19 90 -23 234 -93 318 -156 34 -25
67 -45 72 -45 6 0 10 -7 10 -15 0 -8 5 -15 11 -15 18 0 48 -35 75 -88 4 -7 18
-26 33 -41 29 -32 40 -47 58 -78 10 -18 7 -25 -26 -57 -20 -20 -42 -36 -48
-36 -6 0 -21 15 -32 34 -12 19 -47 55 -79 80 -31 26 -64 53 -73 60 -8 7 -31
21 -50 32 -19 10 -38 25 -44 31 -11 14 -105 63 -120 63 -6 0 -16 5 -23 12 -6
6 -18 13 -26 14 -9 1 -37 9 -63 17 -26 8 -97 21 -156 27 -118 13 -249 4 -382
-28 -38 -9 -109 -16 -157 -17 -49 0 -88 -4 -88 -9 0 -8 -154 -2 -245 11 -81
11 -270 65 -310 89 -23 13 -47 24 -53 24 -34 0 -255 190 -299 256 -8 14 -18
23 -20 20 -6 -6 40 -78 61 -95 9 -7 16 -19 16 -25 0 -7 14 -25 30 -41 43 -41
40 -57 -10 -49 -27 4 -40 3 -40 -5 0 -7 19 -11 48 -11 51 0 83 -17 156 -85 18
-16 57 -41 87 -55 30 -14 59 -30 64 -36 6 -6 37 -19 70 -28 33 -10 83 -26 110
-36 147 -54 393 -50 670 10 82 18 120 21 210 17 104 -5 273 -39 321 -65 10 -5
45 -19 76 -30 32 -11 71 -30 87 -41 16 -12 36 -21 45 -21 8 0 19 -6 23 -12 4
-7 35 -31 68 -53 33 -22 70 -51 83 -64 21 -22 21 -26 6 -42 -17 -19 -44 -15
-44 7 0 8 -5 14 -10 14 -6 0 -16 5 -23 10 -38 33 -126 93 -146 101 -14 6 -57
25 -95 43 -129 61 -249 80 -459 73 -150 -6 -228 -19 -372 -63 -44 -14 -86 -24
-94 -24 -8 0 -37 -7 -65 -15 -194 -57 -243 -63 -476 -64 -214 -2 -230 0 -300
23 -41 13 -108 34 -148 46 -40 12 -79 28 -86 36 -8 8 -18 14 -22 14 -21 0
-103 47 -129 74 -16 17 -49 44 -73 60 -24 16 -56 45 -73 64 -38 43 -46 38 -11
-7 34 -43 213 -221 222 -221 4 0 17 -9 30 -20 13 -11 29 -20 35 -20 7 0 18 -7
25 -16 15 -17 87 -54 107 -54 7 0 30 -9 50 -20 21 -11 43 -20 50 -20 7 0 13
-3 13 -8 0 -4 37 -16 83 -27 116 -28 422 -29 550 -1 48 11 87 23 87 28 0 4 11
8 25 8 15 0 38 6 53 14 15 8 46 17 67 21 22 4 54 11 70 16 17 5 80 21 140 36
104 26 123 27 335 27 l225 -1 125 -42 c137 -47 180 -66 180 -81 0 -6 5 -10 10
-10 6 0 29 -12 51 -26 39 -24 40 -26 24 -44 -17 -19 -18 -18 -49 3 -17 12 -33
25 -36 28 -3 3 -22 12 -42 20 -21 7 -38 19 -38 26 0 7 -5 13 -11 13 -6 0 -25
6 -42 14 -82 35 -119 46 -212 60 -56 9 -139 16 -187 16 -118 0 -324 -33 -470
-76 -26 -8 -56 -14 -67 -14 -12 0 -21 -6 -21 -13 0 -8 -22 -18 -52 -25 -84
-20 -159 -39 -208 -53 -55 -15 -447 -24 -463 -10 -7 5 -30 12 -52 16 -22 4
-56 13 -75 20 -19 7 -54 18 -78 26 -24 7 -46 17 -50 24 -4 6 -27 19 -52 30
-25 11 -48 23 -51 27 -7 11 -82 49 -86 44 -5 -4 78 -66 88 -66 4 0 10 -8 13
-18 4 -10 36 -34 74 -53 37 -18 69 -36 72 -39 12 -12 79 -40 130 -53 145 -40
200 -47 358 -47 151 0 193 5 372 42 30 6 64 12 76 13 23 3 121 34 146 46 10 5
28 9 41 9 13 0 43 6 68 14 129 40 398 52 534 23 120 -26 175 -41 175 -49 0 -5
5 -8 11 -8 6 0 25 -6 42 -14 18 -8 40 -16 50 -20 23 -7 22 -29 -2 -50 -18 -17
-22 -17 -43 -2 -12 9 -29 16 -36 16 -8 0 -43 14 -79 30 -35 17 -79 30 -97 30
-17 0 -38 6 -44 13 -10 9 -67 12 -214 12 -152 0 -202 -3 -205 -12 -3 -7 -21
-13 -41 -13 -52 -1 -245 -54 -411 -115 -73 -26 -77 -27 -180 -16 -58 6 -158
13 -221 17 -63 3 -214 17 -335 30 -121 13 -254 24 -295 24 -41 0 -138 7 -215
15 -194 21 -197 21 -231 -16 -16 -17 -41 -43 -56 -57 -16 -15 -28 -30 -28 -35
0 -5 -16 -28 -35 -51 l-35 -43 113 -7 c61 -4 310 -11 552 -16 242 -5 611 -13
820 -19 627 -18 1194 -31 1295 -31 l95 0 145 -145 145 -145 145 145 145 145
100 0 c115 0 779 15 1315 31 201 6 570 14 820 19 250 5 501 12 557 16 l102 7
-39 51 c-53 69 -90 112 -120 143 -24 24 -28 25 -110 18 -47 -3 -121 -10 -165
-15 -44 -5 -116 -9 -160 -9 -44 -1 -179 -12 -300 -25 -121 -13 -274 -27 -340
-31 -66 -3 -166 -11 -221 -17 -106 -11 -125 -8 -229 37 -29 13 -145 48 -215
65 -19 4 -51 13 -70 19 -19 6 -49 11 -66 11 -17 0 -45 7 -63 16 -26 13 -63 15
-216 12 -130 -2 -188 -7 -197 -15 -6 -7 -25 -13 -40 -13 -27 0 -134 -41 -209
-80 l-36 -19 -23 24 c-13 14 -22 27 -19 29 13 11 113 56 125 56 8 0 14 5 14
10 0 6 8 10 17 10 10 0 35 6 58 14 153 53 465 53 634 0 25 -8 55 -14 68 -14
13 0 31 -4 41 -9 24 -14 105 -37 192 -55 296 -61 522 -62 742 -5 21 5 40 10
43 9 18 -1 207 105 235 132 19 18 54 46 78 61 25 15 42 31 39 34 -5 5 -74 -32
-87 -46 -9 -11 -81 -41 -95 -41 -8 0 -15 -6 -15 -13 0 -8 -19 -20 -42 -27 -24
-7 -60 -19 -81 -26 -20 -8 -47 -14 -60 -14 -12 0 -35 -7 -51 -15 -22 -12 -71
-15 -232 -15 -116 0 -205 4 -209 9 -3 6 -27 13 -53 16 -26 3 -65 12 -87 20
-22 7 -68 19 -102 26 -35 7 -63 18 -63 25 0 6 -12 14 -27 17 -16 2 -64 14
-108 26 -115 31 -323 61 -422 61 -139 0 -307 -33 -393 -77 -14 -7 -33 -13 -42
-13 -10 0 -18 -6 -18 -13 0 -7 -19 -20 -42 -30 -24 -11 -56 -31 -71 -45 -22
-21 -31 -24 -45 -16 -28 18 -20 36 28 62 25 14 47 28 50 31 12 16 79 49 111
55 19 3 47 13 63 21 75 40 145 49 371 49 215 -1 223 -1 350 -33 72 -18 149
-36 172 -41 23 -5 58 -16 78 -25 21 -8 46 -15 56 -15 11 0 19 -3 19 -8 0 -4
45 -16 101 -27 146 -27 422 -28 537 0 45 11 82 23 82 27 0 5 6 8 13 8 6 0 23
6 37 13 14 7 50 21 80 31 30 10 69 29 87 42 17 13 34 24 37 24 33 0 286 237
286 268 0 6 7 12 15 16 8 3 15 11 15 18 0 6 -28 -16 -61 -50 -34 -34 -67 -62
-73 -62 -6 0 -27 -16 -46 -36 -41 -43 -203 -124 -310 -154 -171 -49 -195 -52
-420 -48 -185 3 -227 7 -305 27 -159 41 -199 53 -273 77 -40 13 -86 24 -103
24 -17 0 -39 5 -50 11 -11 5 -79 17 -152 26 -111 13 -150 13 -247 3 -63 -7
-135 -18 -160 -25 -25 -7 -64 -18 -86 -24 -23 -6 -47 -18 -54 -26 -7 -8 -19
-15 -26 -15 -19 0 -134 -61 -134 -72 0 -4 -5 -8 -11 -8 -6 0 -28 -13 -49 -30
-21 -16 -42 -30 -48 -30 -5 0 -12 -9 -15 -20 -6 -23 -29 -26 -47 -5 -15 17 17
51 105 110 33 22 62 42 65 46 3 3 24 15 47 26 23 12 50 26 60 31 10 5 29 14
43 20 14 5 43 18 64 27 73 33 230 65 341 71 91 5 127 2 210 -16 282 -61 524
-64 670 -10 28 10 77 26 110 36 33 9 65 22 70 28 6 6 35 22 65 36 30 14 68 39
85 55 16 17 47 42 67 55 21 14 38 29 38 33 0 5 16 25 35 45 19 20 35 41 35 46
0 4 14 24 30 43 57 65 30 56 -39 -13 -76 -76 -121 -114 -136 -114 -5 0 -23
-14 -39 -30 -16 -17 -35 -30 -43 -30 -7 0 -39 -13 -70 -30 -32 -16 -96 -37
-143 -46 -47 -9 -94 -21 -105 -27 -11 -6 -53 -11 -95 -13 -41 -1 -83 -5 -93
-9 -10 -4 -39 -5 -65 -2 -26 4 -87 8 -137 10 -49 3 -117 11 -150 20 -173 44
-409 42 -555 -5 -72 -22 -175 -71 -203 -96 -16 -15 -45 -33 -77 -48 -31 -16
-118 -98 -194 -183 l-29 -33 -40 40 -40 40 17 36 c9 20 35 56 56 81 22 26 40
50 40 54 0 13 56 71 68 71 7 0 12 6 12 13 1 25 247 177 287 177 7 0 13 4 13 9
0 5 35 18 78 30 71 19 105 21 373 21 278 0 300 1 386 24 50 13 105 31 123 39
18 9 36 14 41 11 84 -52 457 -51 544 1 11 7 41 19 68 26 26 7 47 17 47 21 0
11 -8 10 -32 -3 -11 -6 -52 -11 -89 -10 -55 1 -69 -2 -69 -14 0 -23 -45 -30
-185 -29 -99 1 -149 6 -209 23 -89 24 -117 26 -133 10 -18 -18 -124 -37 -245
-45 -99 -6 -118 -4 -118 7 0 8 -9 21 -20 29 -11 8 -20 20 -20 27 0 22 -67 16
-90 -9 -11 -12 -20 -27 -20 -34 0 -8 -40 -13 -132 -16 -87 -3 -133 -9 -136
-16 -2 -7 -17 -12 -34 -12 -36 0 -168 -39 -168 -50 0 -4 -28 -22 -62 -39 -66
-33 -100 -52 -108 -61 -3 -3 -27 -23 -55 -45 -61 -47 -84 -73 -137 -150 -23
-33 -47 -64 -55 -68 -7 -4 -13 -16 -13 -25 0 -9 -9 -27 -18 -40 l-18 -24 -37
33 c-35 31 -50 69 -27 69 15 0 12 30 -2 32 -7 0 -17 2 -23 2 -5 1 -16 5 -22 9
-9 6 -13 1 -13 -15 0 -27 10 -43 29 -49 10 -4 6 -13 -14 -37 -33 -39 -38 -39
-56 -4 -17 33 -61 96 -71 100 -5 2 -8 8 -8 13 0 16 -71 102 -108 130 -20 16
-48 39 -63 53 -14 13 -35 27 -47 30 -12 4 -22 12 -22 17 0 5 -9 9 -19 9 -11 0
-23 4 -26 10 -3 5 -23 17 -43 27 -20 9 -39 20 -42 25 -10 13 -134 48 -173 48
-23 0 -36 4 -32 10 3 6 35 10 71 10 36 0 64 4 64 10 0 6 9 10 20 10 11 0 20 4
20 9 0 5 12 11 28 14 16 4 36 20 48 39 17 26 33 36 73 47 28 7 51 19 51 26 0
7 18 15 40 19 26 4 40 11 40 21 0 12 -14 15 -60 15 -40 0 -60 -4 -60 -12 0
-20 -18 5 -23 32 -2 14 -5 19 -6 13z m659 -928 l215 -215 -215 -215 c-118
-118 -219 -215 -224 -215 -4 0 -105 97 -224 215 l-216 216 215 214 c118 118
219 215 224 215 6 0 107 -97 225 -215z m-864 -149 c50 -8 105 -21 122 -30 17
-9 40 -16 52 -16 11 0 20 -5 20 -12 0 -7 19 -32 43 -56 l42 -43 -40 5 c-87 11
-147 16 -305 26 -91 5 -221 16 -290 24 -69 8 -160 18 -202 21 -79 7 -101 20
-50 30 15 3 50 13 79 22 128 39 371 53 529 29z m1685 -1 c58 -8 123 -21 144
-28 22 -8 57 -17 79 -21 53 -10 34 -23 -44 -30 -36 -4 -150 -15 -255 -26 -104
-10 -266 -24 -360 -30 -93 -6 -188 -14 -210 -17 l-40 -5 55 56 c30 31 63 56
73 56 10 0 32 7 49 16 79 41 326 55 509 29z"/>
<path d="M6390 6570 c0 -5 5 -10 10 -10 6 0 10 5 10 10 0 6 -4 10 -10 10 -5 0
-10 -4 -10 -10z"/>
<path d="M6370 6522 c0 -5 7 -12 15 -16 18 -6 45 2 45 15 0 14 -18 11 -23 -3
-3 -10 -7 -10 -20 1 -10 7 -17 9 -17 3z"/>
<path d="M6340 6497 c30 -25 41 -55 28 -77 -7 -11 -18 -20 -25 -20 -6 0 -15
-9 -18 -21 -4 -11 -18 -25 -31 -31 -24 -11 -33 -28 -14 -28 6 0 10 4 10 9 0 5
9 13 20 16 11 3 20 13 20 21 0 8 6 14 13 14 8 0 20 11 27 25 13 24 50 35 50
15 0 -13 16 -33 49 -63 13 -12 48 -46 77 -74 30 -29 58 -53 64 -53 5 0 10 -16
10 -35 0 -29 -4 -36 -25 -41 -14 -3 -25 -9 -25 -13 0 -9 -72 -83 -98 -101 -12
-8 -24 -21 -27 -30 -3 -8 -14 -21 -25 -28 -17 -11 -26 -10 -50 5 -17 9 -30 23
-30 29 0 6 -16 24 -35 38 -19 15 -35 22 -35 16 0 -14 25 -40 39 -40 5 0 13 -9
16 -20 3 -11 12 -20 18 -20 7 0 20 -9 29 -19 14 -17 15 -21 2 -32 -8 -6 -14
-16 -14 -22 0 -5 -8 -16 -17 -24 -16 -13 -16 -13 3 -4 12 6 24 17 28 26 8 23
34 18 61 -12 l25 -28 -13 27 c-6 16 -15 28 -19 28 -26 0 5 43 93 131 106 105
114 109 172 84 14 -6 12 -1 -7 20 -24 25 -24 28 -9 51 8 13 20 24 26 24 6 0 8
3 4 6 -7 7 -67 -18 -67 -28 0 -3 -25 18 -55 47 -30 30 -55 59 -55 65 0 5 -5
10 -10 10 -6 0 -33 24 -60 52 -43 45 -48 55 -35 64 8 6 15 16 15 22 0 6 8 16
18 21 9 6 12 11 5 11 -6 0 -20 -11 -31 -25 -11 -14 -26 -25 -34 -25 -8 0 -21
11 -28 25 -7 14 -20 25 -29 25 -14 -1 -14 -2 -1 -13z"/>
<path d="M6384 6387 c-5 -7 -13 -20 -17 -29 -3 -10 -13 -18 -21 -18 -8 0 -18
-9 -21 -20 -3 -11 -12 -20 -19 -20 -16 0 -41 -28 -33 -36 6 -6 56 35 90 74 12
12 27 22 34 22 7 0 39 -25 71 -55 31 -31 58 -52 60 -47 3 10 -65 82 -78 82 -5
0 -15 12 -22 27 -15 31 -29 37 -44 20z"/>
<path d="M6363 6305 c-35 -37 -43 -58 -18 -49 8 4 15 10 15 16 0 14 26 38 42
38 8 0 22 -13 31 -30 19 -32 37 -39 37 -15 0 8 -6 15 -13 15 -7 0 -21 14 -30
30 -10 17 -21 30 -25 29 -4 0 -22 -16 -39 -34z"/>
<path d="M6219 6273 c-14 -16 -36 -36 -49 -47 -21 -17 -24 -17 -32 -2 -5 9
-16 16 -24 16 -11 0 -10 -5 5 -22 22 -22 18 -36 -19 -65 -12 -10 -11 -11 9 -6
13 3 26 14 28 25 6 20 23 25 23 5 0 -7 13 -21 29 -30 17 -10 33 -26 36 -37 5
-17 35 -30 35 -15 0 10 -60 65 -70 65 -6 0 -10 16 -10 35 0 19 3 35 8 35 9 0
72 56 72 64 0 13 -17 4 -41 -21z"/>
<path d="M6390 6265 c0 -8 6 -15 14 -15 37 0 53 -73 20 -97 -10 -7 -27 -10
-38 -7 -19 6 -20 5 -6 -12 8 -10 15 -20 16 -22 2 -3 51 45 71 70 10 12 6 22
-28 56 -44 46 -49 49 -49 27z"/>
<path d="M6487 6232 c4 -9 14 -22 22 -29 14 -10 14 -12 -1 -18 -10 -4 -18 -14
-18 -22 0 -10 6 -13 16 -9 9 3 18 6 20 6 2 0 4 15 4 33 0 26 -6 36 -25 45 -21
10 -23 9 -18 -6z"/>
<path d="M6060 6227 c0 -8 6 -20 14 -26 12 -10 13 -8 9 9 -7 25 -23 37 -23 17z"/>
<path d="M6220 6221 c-13 -25 3 -71 24 -71 9 0 21 -10 27 -22 14 -27 67 -78
80 -78 5 0 9 -4 9 -8 0 -5 9 -19 19 -31 19 -22 41 -21 41 1 0 11 64 78 75 78
12 0 37 30 33 41 -2 6 -29 -14 -60 -45 -32 -31 -63 -56 -71 -56 -7 0 -23 10
-34 23 -11 12 -46 46 -77 75 -59 56 -66 71 -40 96 14 14 14 16 0 16 -8 0 -20
-9 -26 -19z"/>
<path d="M6280 6221 c-10 -19 -14 -61 -6 -61 2 0 13 -3 23 -7 17 -7 17 -6 1
11 -22 22 -23 40 -2 60 8 9 11 16 5 16 -6 0 -15 -9 -21 -19z"/>
<path d="M6554 6224 c9 -8 16 -22 16 -29 0 -7 -7 -21 -16 -29 -17 -17 -14 -19
10 -10 9 3 16 12 16 20 0 8 5 14 12 14 6 0 1 11 -12 25 -13 14 -28 25 -32 25
-5 0 -2 -7 6 -16z"/>
<path d="M6720 6225 c0 -8 2 -15 4 -15 2 0 6 7 10 15 3 8 1 15 -4 15 -6 0 -10
-7 -10 -15z"/>
<path d="M6330 6211 c-7 -14 -7 -22 0 -26 6 -4 8 -11 5 -16 -4 -5 1 -9 9 -9 9
0 16 5 16 10 0 6 -4 10 -10 10 -5 0 -10 7 -10 15 0 8 5 15 10 15 6 0 10 5 10
10 0 17 -19 11 -30 -9z"/>
<path d="M6390 6216 c0 -8 -6 -17 -12 -19 -10 -4 -10 -6 0 -6 6 -1 12 -8 12
-16 0 -8 4 -15 9 -15 12 0 19 29 13 53 -5 20 -22 23 -22 3z"/>
<path d="M6067 6173 c-4 -3 -7 -11 -7 -17 0 -6 5 -5 12 2 6 6 9 14 7 17 -3 3
-9 2 -12 -2z"/>
<path d="M6720 6165 c0 -8 4 -15 10 -15 5 0 7 7 4 15 -4 8 -8 15 -10 15 -2 0
-4 -7 -4 -15z"/>
<path d="M6320 6142 c0 -10 22 -32 32 -32 15 0 8 15 -12 28 -11 7 -20 9 -20 4z"/>
<path d="M6438 6115 c-21 -32 -58 -48 -58 -25 0 6 -5 10 -10 10 -6 0 -5 -8 2
-20 17 -27 42 -25 58 5 7 14 17 25 21 25 5 0 13 9 19 20 19 35 -8 23 -32 -15z"/>
<path d="M6406 5876 c10 -8 21 -12 24 -10 5 6 -21 24 -34 24 -6 0 -1 -6 10
-14z"/>
<path d="M6365 5870 c-3 -5 -1 -10 4 -10 6 0 11 5 11 10 0 6 -2 10 -4 10 -3 0
-8 -4 -11 -10z"/>
<path d="M8324 7264 c-8 -20 -13 -38 -10 -41 3 -3 8 6 11 20 4 14 15 27 26 30
23 6 26 27 3 27 -8 0 -22 -16 -30 -36z"/>
<path d="M3486 7265 c-3 -8 -17 -15 -31 -15 -15 0 -25 -6 -25 -14 0 -8 -9 -18
-20 -21 -11 -3 -20 -13 -20 -21 0 -8 -4 -14 -10 -14 -5 0 -10 -7 -10 -15 0 -8
-7 -15 -15 -15 -8 0 -15 -3 -15 -6 0 -3 7 -12 15 -20 13 -14 15 -14 15 0 0 9
3 16 8 16 4 0 12 10 17 23 8 17 20 23 53 25 34 3 42 7 42 23 0 10 5 19 10 19
6 0 10 11 10 25 0 27 -15 34 -24 10z"/>
<path d="M3971 7254 c0 -11 3 -14 6 -6 3 7 2 16 -1 19 -3 4 -6 -2 -5 -13z"/>
<path d="M4080 7215 c0 -7 61 -37 66 -33 2 3 -12 12 -31 21 -19 9 -35 15 -35
12z"/>
<path d="M8680 7195 c-14 -8 -20 -14 -14 -15 5 0 19 7 30 15 24 18 16 19 -16
0z"/>
<path d="M8776 7195 c-3 -8 -1 -15 3 -15 5 0 11 7 15 15 3 8 1 15 -3 15 -5 0
-11 -7 -15 -15z"/>
<path d="M9170 7195 c0 -8 -5 -15 -11 -15 -5 0 -7 -5 -4 -10 4 -6 11 -7 17 -4
7 4 8 2 4 -4 -4 -7 -16 -12 -26 -12 -11 0 -24 -8 -29 -19 -6 -10 -24 -21 -40
-24 -22 -5 -32 -14 -37 -32 -3 -14 -13 -25 -21 -25 -8 0 -17 -9 -20 -20 -5
-20 -23 -28 -23 -10 0 22 -26 8 -41 -23 -16 -31 -17 -32 -75 -29 -44 2 -55 0
-44 -8 13 -9 13 -12 -2 -21 -31 -18 -19 -29 32 -29 28 0 50 5 50 10 0 6 11 10
25 10 14 0 25 4 25 9 0 4 11 6 25 3 19 -3 25 0 25 13 0 14 6 16 33 11 17 -4
34 -11 35 -16 6 -16 22 -1 22 20 0 11 9 24 20 30 12 6 20 21 20 35 0 18 5 25
20 25 16 0 20 7 20 33 0 23 9 40 30 60 17 16 30 35 30 43 0 9 -11 14 -30 14
-20 0 -30 -5 -30 -15z"/>
<path d="M3711 7164 c0 -11 3 -14 6 -6 3 7 2 16 -1 19 -3 4 -6 -2 -5 -13z"/>
<path d="M6447 7126 c-3 -7 -24 -16 -47 -19 -24 -3 -49 -14 -59 -26 -12 -14
-30 -21 -55 -21 -57 0 -42 -17 22 -23 55 -5 58 -4 85 29 16 19 35 34 43 34 8
0 14 5 14 10 0 6 9 10 20 10 11 0 20 5 20 10 0 15 -37 12 -43 -4z"/>
<path d="M3780 7031 c-8 -6 -11 -14 -6 -18 5 -4 11 -2 13 5 5 14 33 16 33 2 0
-5 9 -10 21 -10 32 0 17 25 -17 28 -16 1 -36 -2 -44 -7z"/>
<path d="M6285 6990 c4 -11 -1 -34 -9 -52 -9 -17 -13 -29 -10 -25 11 11 45
-29 38 -46 -7 -18 -24 -23 -24 -7 0 6 6 10 13 11 6 0 -1 6 -16 13 -16 7 -33
19 -38 27 -7 11 -9 8 -9 -9 0 -13 4 -21 9 -17 5 3 13 0 17 -6 5 -8 -3 -10 -27
-6 -19 4 -41 2 -49 -3 -11 -7 -1 -10 35 -10 38 0 55 -5 68 -20 19 -23 22 -40
7 -40 -5 0 -10 6 -10 13 0 8 -3 8 -8 1 -4 -6 -16 -14 -27 -19 -16 -8 -11 -10
24 -13 42 -3 76 -26 65 -44 -3 -5 0 -8 5 -8 6 0 11 14 11 30 0 24 -4 30 -21
30 -12 0 -19 5 -16 13 2 6 15 11 28 10 15 -1 17 0 7 3 -18 5 -22 14 -19 44 1
8 -9 26 -22 40 l-23 25 23 25 c19 20 23 22 23 7 0 -9 5 -17 10 -17 6 0 10 6
10 13 0 22 19 43 28 31 4 -6 17 -14 28 -18 19 -6 21 -3 16 19 -5 27 -21 31
-53 15 -13 -7 -19 -7 -19 0 0 5 -16 10 -36 10 -31 0 -35 -3 -29 -20z"/>
<path d="M6545 7002 c-22 -3 -54 -42 -34 -42 6 0 17 7 26 15 16 17 33 12 33
-11 0 -16 16 -19 25 -4 3 6 1 10 -5 10 -6 0 -14 8 -18 18 -4 10 -15 16 -27 14z"/>
<path d="M3693 6993 c-20 -8 -15 -23 7 -23 11 0 20 7 20 15 0 15 -6 17 -27 8z"/>
<path d="M6466 6984 c-5 -12 -2 -15 10 -10 8 3 18 6 20 6 3 0 2 5 -1 10 -9 15
-22 12 -29 -6z"/>
<path d="M8720 6985 c0 -11 11 -15 40 -15 48 0 53 15 9 24 -45 9 -49 8 -49 -9z"/>
<path d="M6239 6980 c-1 -5 -2 -15 -3 -20 -2 -15 -28 -30 -41 -23 -5 3 -5 0 2
-7 10 -11 15 -11 27 -1 8 7 19 10 24 7 7 -4 32 33 32 49 0 10 -40 5 -41 -5z"/>
<path d="M3623 6963 c9 -2 25 -2 35 0 9 3 1 5 -18 5 -19 0 -27 -2 -17 -5z"/>
<path d="M6546 6942 c-6 -23 -11 -29 -24 -25 -14 5 -15 3 -5 -7 7 -8 9 -19 4
-29 -9 -17 -7 -49 5 -59 4 -4 9 -1 11 6 3 6 17 12 31 12 20 0 23 3 12 9 -8 6
-18 7 -24 4 -5 -4 -7 1 -2 12 4 10 2 21 -4 25 -16 10 -1 40 17 33 10 -4 11 -8
3 -13 -8 -5 -7 -9 5 -13 9 -4 14 -3 10 3 -4 6 4 15 17 20 l23 11 -23 -5 c-16
-3 -26 3 -36 22 l-14 26 -6 -32z"/>
<path d="M6466 6945 c-3 -9 0 -15 9 -15 9 0 12 6 9 15 -4 8 -7 15 -9 15 -2 0
-5 -7 -9 -15z"/>
<path d="M3508 6928 c13 -14 39 -34 58 -44 18 -10 34 -22 34 -26 0 -5 8 -8 18
-8 9 0 26 -7 36 -15 11 -8 28 -15 37 -15 10 0 19 -5 21 -10 12 -37 306 -57
438 -31 57 12 69 12 100 -3 34 -15 70 -36 80 -46 27 -27 184 -71 245 -69 l30
1 -35 10 c-76 20 -145 43 -150 48 -3 3 -35 21 -72 39 -38 18 -68 36 -68 40 0
4 -13 14 -29 24 -26 15 -33 15 -102 0 -62 -13 -210 -20 -319 -15 -28 2 -155
38 -182 53 -10 5 -23 9 -29 9 -7 0 -26 10 -43 23 -17 12 -44 31 -61 41 l-30
19 23 -25z"/>
<path d="M6392 6941 c-17 -10 -14 -22 7 -38 13 -9 17 -8 22 5 7 18 1 42 -10
42 -3 0 -12 -4 -19 -9z"/>
<path d="M9259 6912 c-56 -40 -200 -92 -273 -100 -94 -10 -199 -13 -214 -6 -9
4 -25 6 -34 5 -10 -1 -47 5 -83 14 -71 18 -80 16 -132 -34 -12 -12 -25 -21
-29 -21 -11 0 -98 -42 -104 -51 -5 -6 -71 -29 -140 -48 l-35 -9 30 -1 c62 -1
256 56 263 78 2 7 22 21 45 33 39 19 46 20 107 7 98 -20 310 -17 393 6 37 10
67 22 67 26 0 5 7 9 15 9 8 0 38 14 67 32 29 17 61 31 71 30 12 0 17 7 17 24
0 15 6 24 15 24 8 0 15 5 15 10 0 14 -1 14 -61 -28z"/>
<path d="M6330 6890 c0 -5 5 -10 10 -10 6 0 10 5 10 10 0 6 -4 10 -10 10 -5 0
-10 -4 -10 -10z"/>
<path d="M6570 6869 c0 -5 5 -7 10 -4 6 3 10 8 10 11 0 2 -4 4 -10 4 -5 0 -10
-5 -10 -11z"/>
<path d="M6370 6846 c0 -2 7 -9 15 -16 12 -10 15 -10 15 4 0 9 -7 16 -15 16
-8 0 -15 -2 -15 -4z"/>
<path d="M6430 6839 c0 -5 5 -7 10 -4 6 3 10 8 10 11 0 2 -4 4 -10 4 -5 0 -10
-5 -10 -11z"/>
<path d="M6420 6792 c0 -7 -9 -12 -20 -12 -26 0 -28 -48 -2 -57 9 -4 29 -18
43 -33 25 -25 47 -28 61 -7 8 14 -22 36 -39 30 -7 -3 -13 0 -13 7 0 8 8 10 21
7 15 -4 19 -2 15 9 -3 8 -2 12 4 9 8 -5 36 33 28 40 -6 6 -75 -30 -78 -40 -3
-18 -10 -19 -10 -2 0 10 -8 17 -17 17 -15 0 -14 2 3 14 10 8 16 18 11 22 -4 4
-7 2 -7 -4z"/>
<path d="M3692 6400 c-18 -4 -36 -11 -40 -15 -10 -11 71 5 83 16 10 10 4 10
-43 -1z"/>
<path d="M9100 6396 c14 -8 40 -15 58 -16 17 0 32 -4 32 -9 0 -11 47 -21 115
-26 28 -2 37 -1 20 2 -16 3 -32 9 -35 13 -5 8 -98 31 -185 46 l-30 5 25 -15z"/>
<path d="M3560 6368 c-14 -6 -38 -14 -55 -19 -27 -7 -26 -8 10 -4 64 6 105 17
105 26 0 12 -29 10 -60 -3z"/>
<path d="M5460 5305 c0 -18 5 -25 20 -25 19 0 20 -7 20 -95 0 -88 -1 -95 -20
-95 -13 0 -20 -7 -20 -20 0 -23 -8 -22 138 -24 l112 -1 0 43 c0 38 -2 42 -25
42 -18 0 -25 -5 -25 -20 0 -17 -7 -20 -50 -20 l-50 0 0 35 c0 34 1 35 40 35
36 0 40 3 40 25 0 23 -4 25 -40 25 -39 0 -40 1 -40 35 l0 35 50 0 c43 0 50 -3
50 -20 0 -15 7 -20 25 -20 23 0 25 4 25 45 l0 45 -125 0 -125 0 0 -25z"/>
<path d="M6230 5305 c0 -16 6 -25 15 -25 11 0 15 -11 15 -37 0 -34 -1 -35 -18
-20 -28 26 -74 21 -103 -9 -67 -71 11 -207 90 -157 19 12 25 13 32 2 4 -7 26
-14 48 -14 36 -1 41 2 41 22 0 16 -6 23 -20 23 -19 0 -20 7 -20 120 l0 120
-40 0 c-36 0 -40 -2 -40 -25z m18 -117 c17 -17 15 -73 -2 -88 -42 -34 -92 22
-68 75 13 27 49 34 70 13z"/>
<path d="M6653 5311 c-25 -16 -33 -28 -33 -51 0 -41 31 -41 47 1 9 24 17 30
35 27 44 -6 35 -43 -26 -109 -42 -45 -56 -68 -56 -90 0 -16 0 -32 0 -36 0 -3
38 -7 85 -8 l85 -2 0 43 c0 37 -3 44 -20 44 -13 0 -20 -7 -20 -20 0 -17 -7
-20 -45 -20 -25 0 -45 3 -45 8 0 4 29 34 65 68 47 44 65 67 65 86 0 63 -77 96
-137 59z"/>
<path d="M6893 5318 c-31 -15 -48 -64 -47 -138 0 -74 13 -104 52 -124 73 -37
132 23 132 135 0 106 -62 163 -137 127z m72 -51 c3 -12 5 -55 3 -96 -2 -58 -7
-76 -21 -85 -15 -9 -21 -7 -33 8 -17 23 -19 147 -4 177 15 26 48 24 55 -4z"/>
<path d="M7140 5323 c-30 -11 -50 -37 -50 -65 0 -40 32 -38 47 3 9 24 17 30
35 27 44 -6 35 -44 -26 -108 -36 -37 -57 -68 -57 -84 -1 -14 -2 -32 -3 -38 -1
-10 23 -13 86 -13 l88 0 0 43 c0 35 -3 42 -20 42 -13 0 -20 -7 -20 -20 0 -17
-7 -20 -45 -20 -63 0 -58 14 27 83 70 56 76 112 18 142 -30 15 -53 18 -80 8z"/>
<path d="M7371 5259 c-45 -51 -61 -78 -61 -100 0 -29 1 -29 55 -29 48 0 55 -2
55 -20 0 -11 -7 -20 -15 -20 -9 0 -15 -9 -15 -22 0 -21 5 -23 55 -23 51 -1 55
1 55 22 0 14 -6 23 -15 23 -8 0 -15 9 -15 20 0 11 7 20 15 20 9 0 15 9 15 25
0 16 -6 25 -15 25 -12 0 -15 15 -15 75 0 67 -2 75 -19 75 -11 0 -44 -29 -80
-71z m51 -66 c-4 -12 -72 -19 -72 -8 0 2 15 21 33 41 l32 37 6 -29 c3 -16 3
-35 1 -41z"/>
<path d="M6007 5292 c-15 -9 -25 -23 -22 -30 2 -7 -2 -15 -10 -18 -19 -8 -19
-40 0 -47 10 -4 15 -26 17 -74 3 -62 5 -68 28 -73 14 -4 33 -4 43 -2 23 6 22
38 -3 45 -17 4 -20 14 -20 56 0 44 3 51 20 51 26 0 27 36 1 43 -13 3 -21 15
-23 35 l-3 31 -28 -17z"/>
<path d="M5897 5243 c-4 -3 -31 -5 -61 -4 -61 2 -86 -14 -86 -55 0 -25 22 -39
95 -61 38 -11 40 -37 3 -41 -18 -2 -33 4 -45 17 -9 12 -26 21 -36 21 -15 0
-18 -7 -15 -37 3 -36 23 -52 39 -31 3 4 18 4 35 -1 31 -9 73 2 86 22 12 19 9
64 -4 75 -7 5 -35 16 -61 23 -27 8 -49 19 -50 24 -3 14 53 19 66 6 6 -6 19
-11 29 -11 13 0 18 8 18 30 0 31 -2 35 -13 23z"/>
<path d="M6400 5213 c0 -31 2 -33 35 -33 32 0 35 3 35 29 0 25 -4 29 -35 33
-34 4 -35 3 -35 -29z"/>
<path d="M6400 5078 c0 -30 3 -33 33 -33 29 0 32 3 35 33 3 31 2 32 -32 32
-34 0 -36 -2 -36 -32z"/>
<path d="M9213 9198 c-5 -7 -27 -42 -48 -77 l-38 -64 29 -24 c28 -23 29 -23
44 -4 8 10 20 27 25 36 10 16 13 16 33 4 12 -8 22 -18 22 -23 0 -5 -28 -54
-61 -108 -52 -84 -65 -99 -83 -94 -17 4 -26 -3 -44 -35 -13 -22 -20 -44 -16
-50 3 -6 50 -39 103 -74 l96 -63 27 41 c25 37 26 43 12 58 -14 15 -10 25 42
110 76 125 75 124 104 101 l23 -19 -23 -33 c-23 -32 -23 -33 -4 -47 47 -35 47
-35 99 50 l50 82 -182 122 c-101 68 -187 123 -192 123 -5 0 -13 -6 -18 -12z"/>
<path d="M3233 8876 c-40 -39 -73 -76 -73 -82 0 -5 15 -24 33 -42 26 -25 36
-29 45 -20 9 9 12 -7 12 -75 0 -75 2 -87 17 -87 41 0 142 -23 137 -31 -7 -11
44 -79 60 -79 6 0 47 36 91 80 l80 80 -32 32 c-25 25 -41 32 -77 34 -24 1 -74
7 -111 14 l-68 13 6 69 c3 38 11 76 18 84 10 12 6 21 -21 49 -19 19 -36 35
-39 34 -4 0 -39 -33 -78 -73z"/>
<path d="M9666 8849 c-28 -33 -32 -49 -16 -65 7 -7 -12 -38 -60 -100 -92 -114
-86 -109 -105 -94 -14 11 -20 8 -45 -21 -16 -19 -29 -37 -30 -41 0 -7 135
-130 171 -156 20 -14 23 -13 55 24 28 33 31 41 18 50 -8 6 -14 14 -14 18 0 3
34 49 76 101 68 84 79 93 96 84 17 -9 25 -6 49 23 15 18 28 36 29 40 0 8 -182
168 -191 168 -4 0 -19 -14 -33 -31z"/>
<path d="M3021 8666 l-84 -85 27 -36 c21 -27 34 -35 53 -33 20 2 40 -13 105
-84 64 -69 78 -91 69 -101 -8 -11 -3 -23 23 -53 l35 -39 87 86 87 87 -33 41
c-26 32 -36 38 -47 29 -16 -13 -34 2 -125 105 -46 51 -58 70 -49 80 8 10 3 22
-20 50 -17 20 -34 37 -37 37 -4 0 -45 -38 -91 -84z"/>
<path d="M9875 8492 c-45 -28 -96 -82 -111 -119 -20 -48 -18 -153 5 -205 27
-61 83 -123 138 -149 55 -27 140 -30 193 -7 116 50 173 206 119 325 -25 56
-98 136 -144 157 -47 23 -161 21 -200 -2z m223 -144 c35 -35 -8 -111 -95 -171
-59 -39 -79 -42 -108 -13 -21 21 -23 28 -14 54 10 29 68 90 119 125 28 20 81
22 98 5z"/>
<path d="M2802 8397 c-5 -6 -26 -43 -47 -82 -21 -38 -48 -86 -60 -105 -40 -63
-105 -176 -105 -182 0 -3 19 -18 42 -33 36 -24 43 -26 52 -12 10 13 21 8 81
-29 39 -24 85 -52 103 -61 26 -14 32 -22 28 -39 -5 -18 2 -27 32 -45 20 -13
40 -24 44 -24 4 0 56 86 117 190 l109 190 -21 17 c-12 9 -38 26 -59 38 l-36
20 -31 -50 c-27 -43 -28 -50 -14 -58 14 -8 12 -15 -12 -56 -30 -51 -42 -55
-76 -27 l-24 20 22 40 23 39 -37 22 c-39 23 -39 23 -69 -33 l-15 -28 -29 21
c-17 12 -30 24 -30 28 0 4 10 26 22 49 18 33 27 41 43 37 16 -4 26 6 47 44
l28 50 -38 24 c-66 44 -79 49 -90 35z"/>
<path d="M10395 8000 c-32 -15 -39 -24 -37 -42 2 -21 -9 -28 -108 -67 -101
-39 -112 -42 -123 -27 -11 15 -15 15 -55 -1 -48 -19 -48 -19 -12 -116 31 -81
30 -81 84 -58 41 18 46 23 37 40 -9 17 -3 22 66 50 42 17 78 29 80 27 2 -2
-32 -61 -77 -132 -112 -175 -105 -155 -80 -229 12 -36 26 -67 31 -70 5 -3 39
7 76 23 199 86 245 103 259 98 8 -3 14 -10 14 -15 0 -6 20 -3 45 6 25 8 45 18
45 22 0 12 -52 155 -59 164 -4 4 -26 -1 -50 -10 -34 -15 -41 -22 -38 -39 3
-19 -6 -26 -60 -47 -34 -14 -63 -22 -63 -18 0 4 35 63 79 132 61 97 76 128 70
144 -5 11 -22 57 -39 103 -17 45 -35 82 -38 81 -4 0 -25 -9 -47 -19z"/>
<path d="M2496 7765 c-4 -20 -4 -45 -1 -55 4 -12 -2 -31 -16 -49 -30 -40 -37
-126 -15 -169 24 -47 59 -66 119 -64 52 0 52 1 127 81 75 81 97 93 120 67 17
-22 -7 -67 -47 -86 -19 -9 -34 -25 -37 -40 -3 -14 -8 -35 -12 -47 -5 -19 0
-22 52 -33 32 -7 63 -14 69 -17 15 -5 37 89 23 98 -5 3 1 22 17 44 32 49 39
75 32 132 -10 93 -107 147 -191 108 -21 -10 -62 -48 -93 -86 -62 -75 -80 -87
-101 -65 -23 23 -7 64 32 83 26 12 36 24 41 50 3 19 8 40 11 47 3 7 -13 16
-41 24 -72 19 -82 17 -89 -23z"/>
<path d="M10183 6913 c-18 -7 -16 -23 2 -23 8 0 15 7 15 15 0 8 -1 15 -2 14
-2 0 -9 -3 -15 -6z"/>
<path d="M2495 6640 c-4 -6 -15 -8 -26 -5 -23 8 -26 -10 -2 -19 17 -7 52 18
41 29 -3 4 -9 1 -13 -5z"/>
<path d="M10430 6636 c0 -3 7 -12 16 -21 12 -12 19 -13 30 -4 8 6 14 16 14 21
0 6 -6 6 -14 -1 -10 -8 -16 -9 -21 -1 -6 10 -25 14 -25 6z"/>
<path d="M2421 6617 c2 -9 64 -78 138 -152 l134 -135 -106 -105 c-59 -58 -109
-105 -111 -105 -9 0 -206 201 -206 210 0 6 45 56 100 112 55 55 98 104 95 107
-3 3 -51 -41 -106 -97 -55 -56 -104 -102 -108 -102 -5 0 -20 11 -35 25 -34 31
-34 18 0 -18 l26 -28 -28 -24 c-16 -13 -26 -26 -23 -29 3 -3 17 6 32 20 l27
25 109 -109 109 -109 -26 -26 c-14 -15 -23 -29 -20 -32 3 -4 18 6 32 21 l25
28 21 -24 c11 -13 23 -21 26 -18 3 3 -5 16 -17 27 l-23 21 104 105 c58 58 109
105 114 105 6 0 20 -10 33 -22 13 -12 26 -19 29 -15 3 3 -6 17 -21 31 l-27 25
26 28 c14 15 21 30 15 32 -6 2 -17 -6 -25 -18 -8 -12 -21 -21 -27 -21 -7 0
-59 47 -116 105 l-105 105 30 32 c26 29 27 30 4 15 -45 -31 -51 -31 -77 -1
-17 20 -24 24 -22 11z"/>
<path d="M10410 6609 c0 -7 10 -23 22 -36 l22 -24 -87 -86 c-48 -47 -87 -88
-87 -92 0 -4 -11 -13 -24 -19 -21 -9 -28 -7 -51 14 -15 14 -29 23 -32 20 -2
-2 60 -69 140 -149 l144 -144 -23 -19 c-13 -11 -23 -26 -23 -34 0 -9 8 -4 20
13 25 33 35 34 59 5 10 -13 21 -20 25 -16 4 4 -3 15 -14 25 -12 9 -21 21 -21
25 0 13 198 208 211 208 7 0 23 -10 36 -22 13 -12 26 -18 29 -15 4 4 -5 16
-19 28 -33 25 -33 33 -2 64 13 14 20 25 15 25 -6 0 -19 -9 -30 -20 -11 -11
-23 -20 -28 -20 -4 0 -54 47 -111 105 -96 96 -103 106 -89 123 27 32 32 47 6
25 -31 -29 -42 -29 -67 3 -12 15 -21 21 -21 13z m166 -393 c-59 -58 -108 -106
-111 -106 -3 0 -53 48 -111 106 l-106 106 33 36 c19 20 68 69 109 109 l74 72
109 -109 109 -109 -106 -105z"/>
<path d="M10401 6444 c-36 -35 -63 -66 -60 -68 3 -3 30 19 59 49 30 30 59 55
64 55 5 0 24 -15 41 -32 88 -89 135 -131 140 -127 2 3 -37 46 -88 96 l-92 90
-64 -63z"/>
<path d="M10440 6426 c-14 -13 -42 -41 -64 -64 l-39 -41 58 -61 c32 -33 62
-59 66 -58 5 2 37 30 72 62 l64 59 -37 36 c-20 20 -50 48 -66 63 l-29 27 -25
-23z m66 -33 c74 -72 73 -68 19 -123 -27 -28 -54 -50 -60 -50 -13 0 -105 89
-105 102 0 10 90 106 101 107 4 1 24 -16 45 -36z"/>
<path d="M10450 6382 c-13 -14 -12 -15 2 -10 10 4 25 -4 43 -24 15 -16 25 -30
23 -31 -2 -1 -14 -12 -28 -24 l-26 -22 -28 24 c-26 23 -27 25 -12 41 9 9 14
19 11 22 -3 3 -14 -3 -24 -14 -17 -19 -17 -22 -2 -40 9 -10 26 -27 37 -36 20
-17 22 -16 57 20 l37 38 -37 36 c-35 33 -39 35 -53 20z"/>
<path d="M10453 6334 c-9 -9 -9 -15 0 -22 17 -14 38 9 23 24 -8 8 -15 7 -23
-2z"/>
<path d="M10307 6352 c-10 -10 -17 -23 -17 -29 0 -5 39 -49 87 -96 67 -68 89
-84 100 -76 18 16 16 28 -4 23 -12 -3 -44 21 -96 71 -70 68 -76 77 -62 91 13
14 21 34 12 34 -2 0 -11 -8 -20 -18z"/>
<path d="M10580 6270 c-8 -16 -8 -18 4 -14 17 6 30 34 16 34 -5 0 -14 -9 -20
-20z"/>
<path d="M10526 6218 c-15 -16 -26 -31 -24 -33 2 -3 17 9 33 25 16 16 27 32
24 34 -2 2 -17 -10 -33 -26z"/>
<path d="M2385 6424 c-47 -48 -85 -90 -83 -95 3 -9 154 -165 169 -174 5 -4 43
28 84 69 91 93 85 101 -9 10 l-68 -66 -46 44 c-75 71 -112 110 -112 119 0 8
35 45 112 118 l46 44 81 -79 c52 -49 80 -83 76 -92 -5 -13 -3 -13 11 -2 14 12
5 24 -73 102 -48 48 -91 88 -95 88 -4 0 -45 -39 -93 -86z"/>
<path d="M2411 6396 c-36 -36 -60 -69 -57 -75 10 -15 26 -14 21 2 -6 15 -1 21
57 76 l47 44 54 -56 55 -56 -50 -50 c-28 -28 -56 -51 -62 -51 -5 0 -27 17 -48
37 -21 20 -40 34 -43 31 -6 -6 80 -88 92 -88 5 0 36 27 70 60 l62 60 -38 38
c-20 20 -51 49 -67 64 l-30 28 -63 -64z"/>
<path d="M2439 6369 l-35 -37 34 -36 c18 -20 36 -36 40 -36 4 1 23 18 43 38
l36 37 -41 36 -41 36 -36 -38z m69 -14 l22 -25 -22 -25 c-27 -31 -31 -31 -63
-1 l-26 24 22 26 c28 32 40 33 67 1z"/>
<path d="M2462 6341 c-11 -6 -11 -10 0 -19 16 -13 44 1 34 17 -8 13 -16 14
-34 2z"/>
<path d="M2160 6364 c0 -5 5 -15 12 -22 8 -8 8 -15 -2 -27 -7 -8 -8 -15 -2
-15 5 0 15 7 22 16 11 13 10 19 -8 37 -12 12 -22 17 -22 11z"/>
<path d="M2768 6351 c-15 -18 -15 -21 5 -38 19 -16 20 -16 8 0 -11 14 -11 20
-1 32 7 9 11 17 8 20 -2 2 -11 -4 -20 -14z"/>
<path d="M10150 6354 c0 -6 6 -16 12 -22 10 -10 10 -15 -2 -22 -8 -5 -12 -11
-9 -15 3 -3 13 3 22 13 16 18 16 20 -3 37 -11 10 -20 14 -20 9z"/>
<path d="M10758 6341 c-12 -14 -13 -21 -3 -34 7 -10 16 -17 20 -17 4 0 2 7 -5
15 -10 12 -10 18 0 30 7 9 11 17 8 20 -2 2 -11 -4 -20 -14z"/>
<path d="M10196 6295 c-15 -12 -24 -25 -19 -28 10 -6 60 39 52 47 -2 2 -17 -6
-33 -19z"/>
<path d="M2452 6037 c-9 -10 -4 -13 23 -13 27 0 32 3 23 13 -6 7 -16 13 -23
13 -7 0 -17 -6 -23 -13z"/>
<path d="M10440 6025 c-8 -9 -8 -15 -2 -15 6 0 14 5 17 10 5 8 12 7 23 -2 13
-11 14 -11 10 2 -7 21 -32 24 -48 5z"/>
<path d="M3254 5359 c-3 -6 -1 -16 5 -22 6 -6 11 -14 11 -18 0 -4 -45 -46
-101 -94 -94 -82 -101 -86 -118 -71 -16 14 -20 15 -30 2 -10 -12 1 -29 56 -93
86 -99 90 -103 100 -103 4 0 33 22 63 49 47 42 53 51 41 65 -12 14 -18 11 -60
-24 l-46 -41 -37 43 c-21 24 -37 46 -35 49 1 4 47 45 102 92 87 74 102 84 115
72 10 -9 21 -11 30 -5 16 10 11 18 -44 78 -32 34 -41 38 -52 21z"/>
<path d="M9782 5335 c-11 -14 -23 -41 -26 -60 -6 -28 -12 -35 -30 -35 -29 0
-64 -37 -72 -77 -4 -21 -11 -30 -20 -26 -20 8 -65 -49 -52 -65 9 -11 14 -10
26 2 13 13 22 10 74 -32 70 -54 73 -59 58 -77 -13 -16 -6 -35 13 -35 7 1 29
23 49 49 33 43 36 50 21 56 -10 3 -19 1 -21 -4 -6 -19 -28 -12 -76 27 -36 29
-46 43 -46 67 0 32 24 75 41 75 6 0 44 -28 85 -62 l75 -62 26 26 c17 17 24 32
19 43 -6 17 -7 17 -26 0 -18 -16 -21 -15 -69 26 -53 46 -64 77 -41 120 17 32
49 22 117 -36 36 -30 68 -55 72 -55 18 0 53 50 47 66 -6 16 -8 15 -26 -1 -19
-17 -22 -16 -88 39 -38 31 -79 56 -90 56 -11 0 -29 -11 -40 -25z"/>
<path d="M3450 5131 c0 -24 13 -33 35 -25 23 9 14 38 -13 42 -16 3 -22 -2 -22
-17z"/>
<path d="M3357 5094 c-4 -4 -4 -16 -1 -28 4 -16 -9 -34 -51 -76 -48 -47 -58
-53 -74 -43 -14 9 -21 9 -30 0 -17 -17 67 -101 86 -85 10 8 11 14 1 25 -9 11
2 28 62 88 l74 74 -24 26 c-24 26 -32 29 -43 19z"/>
<path d="M9497 5021 c-20 -20 -24 -30 -16 -38 9 -9 16 -9 30 0 16 10 26 5 71
-41 l53 -52 -20 -38 c-31 -57 -51 -53 -127 26 l-67 69 -27 -29 c-22 -22 -25
-31 -16 -40 9 -9 15 -9 24 0 9 9 27 -3 79 -53 37 -36 75 -65 84 -65 24 0 75
55 75 80 0 17 4 21 17 16 24 -10 77 43 61 61 -9 11 -14 11 -28 -2 -15 -14 -22
-9 -84 60 -37 41 -70 75 -74 74 -4 -1 -19 -13 -35 -28z"/>
<path d="M3431 5007 c-8 -8 -6 -15 6 -29 15 -17 13 -25 -24 -123 -54 -140 -47
-147 83 -82 52 26 100 47 108 47 7 0 25 -9 40 -21 l26 -21 -20 -26 c-10 -15
-35 -45 -53 -67 -29 -33 -37 -37 -49 -27 -12 10 -18 9 -27 -2 -10 -11 -3 -21
34 -52 34 -27 49 -34 57 -26 8 8 8 15 -1 26 -11 13 -3 28 48 92 34 42 61 80
59 84 -2 4 -36 34 -76 65 -53 41 -77 54 -84 47 -8 -8 -8 -15 1 -26 10 -12 0
-20 -59 -50 -38 -20 -70 -33 -70 -28 0 4 11 36 24 72 20 54 28 65 47 65 36 0
32 18 -15 57 -32 27 -46 34 -55 25z"/>
<path d="M3744 4875 c-4 -9 -2 -21 4 -27 15 -15 44 -1 40 19 -4 23 -36 29 -44
8z"/>
<path d="M9098 4816 c-23 -21 -25 -26 -13 -36 12 -10 18 -10 30 0 9 7 17 11
19 9 37 -39 166 -207 166 -215 0 -7 -8 -15 -17 -18 -15 -6 -15 -8 -1 -23 15
-14 20 -12 62 23 50 41 54 61 13 56 -19 -2 -33 7 -60 40 -49 61 -49 63 -31
102 32 65 50 60 123 -35 30 -38 59 -69 66 -69 6 0 22 11 35 25 18 19 21 28 12
37 -8 8 -15 8 -27 -2 -14 -12 -20 -9 -43 21 -59 75 -95 109 -116 109 -28 0
-64 -33 -72 -65 -3 -14 -10 -25 -15 -25 -4 0 -25 20 -46 45 -20 25 -42 45 -48
45 -5 0 -22 -11 -37 -24z"/>
<path d="M9003 4746 c-37 -25 -31 -46 11 -43 23 2 33 -5 52 -35 l24 -38 -32 0
c-84 0 -136 -80 -107 -163 16 -49 67 -87 113 -87 41 0 93 33 108 67 16 38 18
39 28 24 11 -19 82 23 73 45 -6 17 -9 17 -33 4 -16 -8 -30 7 -107 120 -48 72
-90 130 -93 130 -3 -1 -19 -11 -37 -24z m108 -156 c23 -13 49 -61 49 -90 0
-27 -52 -80 -79 -80 -52 0 -101 48 -101 100 0 12 13 35 29 51 31 30 67 37 102
19z"/>
<path d="M3757 4723 c-4 -3 0 -14 9 -24 15 -17 13 -23 -30 -84 -40 -56 -50
-64 -70 -59 -42 10 -37 -13 11 -50 25 -20 50 -36 54 -36 18 0 21 24 4 36 -16
12 -14 17 21 68 43 60 54 67 100 54 58 -15 54 -37 -23 -143 -41 -56 -42 -61
-26 -73 41 -30 53 -34 60 -16 4 10 2 19 -5 22 -20 6 -14 20 33 86 25 36 45 75
45 89 0 32 -43 67 -82 67 -22 0 -29 4 -25 15 4 9 -5 22 -22 35 -31 21 -43 24
-54 13z"/>
<path d="M4010 4512 c-19 -9 -45 -33 -58 -52 -52 -77 -1 -180 88 -180 46 0 48
-7 19 -44 -31 -40 -81 -36 -126 9 -25 25 -39 32 -50 27 -12 -7 -10 -14 13 -42
49 -58 130 -77 175 -41 13 11 49 63 79 116 51 89 57 95 82 91 45 -9 43 21 -2
44 -22 11 -40 16 -40 10 0 -20 -20 -9 -34 19 -14 27 -68 61 -98 61 -7 0 -29
-8 -48 -18z m84 -36 c88 -37 57 -166 -40 -166 -108 0 -104 155 4 179 1 1 17
-5 36 -13z"/>
<path d="M8803 4488 c-18 -5 -33 -12 -33 -16 0 -4 -9 -18 -20 -32 -14 -18 -22
-22 -28 -13 -12 18 -84 -27 -73 -46 6 -10 13 -10 29 -2 18 10 24 4 62 -65 39
-72 40 -76 23 -89 -14 -10 -15 -17 -6 -25 10 -10 52 7 111 45 1 1 0 9 -4 18
-5 13 -10 14 -26 6 -11 -6 -21 -9 -22 -7 -29 37 -66 122 -61 138 8 27 53 60
71 53 8 -3 33 -39 56 -80 22 -41 46 -77 54 -80 16 -6 66 27 61 41 -2 6 -15 10
-29 8 -19 -2 -28 5 -37 25 -20 45 -71 121 -84 126 -7 2 -27 0 -44 -5z"/>
<path d="M8273 4346 l-53 -21 0 -135 -1 -135 -32 35 c-17 20 -59 65 -92 102
l-61 66 -49 -21 c-28 -11 -51 -21 -53 -22 -1 -1 0 -10 4 -19 4 -11 13 -15 25
-11 11 4 21 -1 27 -12 14 -25 92 -236 89 -238 -1 -1 -9 -6 -18 -11 -10 -5 -14
-16 -10 -25 5 -15 11 -15 58 5 37 15 53 27 53 40 0 14 -5 17 -23 12 -21 -5
-26 3 -66 107 -24 62 -46 118 -48 125 -13 32 20 1 117 -108 58 -65 108 -119
113 -119 4 -1 7 76 7 171 0 94 2 169 5 166 6 -6 82 -197 92 -232 4 -12 -1 -24
-12 -32 -9 -7 -15 -20 -12 -28 9 -22 117 22 117 48 0 14 -5 17 -25 12 -14 -4
-25 -5 -25 -3 0 2 -20 57 -45 123 -49 129 -52 144 -30 144 15 0 21 25 8 33 -5
3 -32 -5 -60 -17z"/>
<path d="M8541 4341 c-27 -20 -20 -45 9 -36 16 5 25 -6 50 -55 32 -63 31 -77
-6 -114 -33 -34 -52 -20 -99 74 l-45 90 -30 -15 c-35 -18 -42 -50 -10 -42 18
5 27 -6 58 -70 21 -42 44 -80 53 -86 24 -15 68 0 100 34 15 16 30 25 34 20 7
-13 75 18 75 34 0 19 -12 25 -31 14 -16 -8 -24 1 -62 78 -24 49 -50 89 -58 90
-8 2 -25 -5 -38 -16z"/>
<path d="M4397 4314 c-13 -14 5 -24 42 -24 24 0 45 -7 59 -20 25 -24 27 -36 8
-68 -11 -21 -14 -22 -26 -7 -40 48 -115 54 -145 12 -39 -56 4 -123 79 -121 35
1 43 -2 39 -15 -5 -22 57 -47 69 -28 4 7 1 17 -7 23 -20 15 -20 17 16 95 37
80 34 110 -14 139 -30 19 -106 27 -120 14z m63 -141 c26 -34 12 -63 -31 -63
-42 0 -69 17 -69 43 1 59 60 71 100 20z"/>
<path d="M4624 4228 c-4 -6 1 -17 11 -24 20 -15 16 -39 -17 -117 -18 -41 -25
-48 -44 -44 -16 3 -24 -1 -26 -12 -2 -11 11 -21 42 -34 78 -30 80 -30 80 -8 0
12 -7 21 -15 21 -8 0 -15 6 -15 12 0 19 43 122 55 130 16 12 70 9 83 -4 18
-18 15 -35 -18 -121 -16 -43 -30 -80 -30 -82 0 -2 16 -9 36 -15 30 -10 38 -10
45 1 5 9 2 17 -9 23 -9 5 -18 10 -20 12 -2 1 10 37 27 79 17 42 31 83 31 90 0
7 -12 23 -27 35 -22 17 -37 21 -71 17 -34 -4 -42 -2 -38 9 3 9 -7 19 -31 29
-43 18 -40 18 -49 3z"/>
<path d="M5095 4181 c-8 -14 3 -31 21 -31 8 0 14 -3 14 -6 0 -9 -23 -88 -27
-93 -2 -3 -16 8 -32 23 -65 62 -169 36 -198 -49 -34 -99 34 -177 137 -160 34
6 39 4 34 -9 -6 -17 36 -39 64 -34 21 4 28 28 8 28 -8 0 -18 4 -21 10 -3 5 15
74 40 153 25 79 45 146 45 149 0 3 -11 9 -24 12 -13 3 -31 8 -39 12 -8 3 -18
1 -22 -5z m-40 -137 c58 -63 -3 -169 -85 -149 -43 11 -60 34 -60 82 0 35 6 49
26 68 37 34 87 34 119 -1z"/>
<path d="M7577 4116 c-43 -11 -49 -41 -8 -41 22 0 26 -9 51 -105 15 -58 30
-118 35 -133 6 -24 4 -29 -14 -34 -12 -3 -21 -13 -21 -25 0 -14 5 -18 18 -14
9 3 38 10 65 17 35 9 47 16 47 30 0 15 -5 18 -23 14 -22 -6 -25 -1 -44 64
l-21 71 30 25 c35 29 64 32 76 8 5 -10 17 -51 27 -91 9 -40 21 -75 27 -78 5
-3 25 -3 44 1 39 7 41 26 4 35 -21 5 -27 17 -43 80 -11 41 -26 83 -35 93 -22
24 -66 21 -100 -8 -17 -14 -32 -25 -35 -25 -3 0 -11 24 -17 53 -15 71 -18 74
-63 63z"/>
<path d="M5340 4102 c0 -12 9 -22 21 -25 16 -4 20 -11 17 -29 -3 -13 -16 -74
-29 -136 -21 -107 -24 -113 -45 -109 -14 2 -25 -2 -29 -11 -8 -20 -6 -21 65
-34 51 -9 64 -8 71 3 6 10 2 17 -14 23 -12 6 -23 11 -25 12 -5 2 20 109 27
117 4 4 19 4 32 -1 20 -8 28 -25 48 -101 13 -50 28 -91 35 -91 6 0 21 -3 32
-6 31 -8 41 24 11 35 -17 7 -26 25 -39 76 -19 71 -17 85 10 85 44 1 81 66 63
113 -14 36 -44 52 -136 72 -44 9 -88 19 -97 21 -13 4 -18 0 -18 -14z m182 -63
c26 -14 32 -47 14 -74 -17 -26 -38 -30 -96 -19 -30 7 -31 8 -25 43 12 71 13
72 53 65 20 -4 45 -11 54 -15z"/>
<path d="M7304 4055 c-8 -20 13 -45 32 -38 19 7 18 39 -2 47 -22 8 -24 8 -30
-9z"/>
<path d="M5683 4044 c-3 -8 1 -22 9 -30 13 -13 16 -13 27 0 7 9 11 23 7 31 -7
20 -35 19 -43 -1z"/>
<path d="M7462 4029 c-7 -11 -10 -29 -7 -40 5 -13 2 -19 -10 -19 -10 0 -15 -7
-13 -17 2 -10 10 -18 18 -18 14 0 19 -14 51 -147 10 -39 34 -54 69 -43 11 4
20 15 20 26 0 16 -5 19 -19 14 -23 -7 -35 12 -45 70 -4 22 -9 52 -12 68 -5 22
-2 27 15 27 15 0 21 6 21 21 0 17 -4 20 -24 15 -25 -6 -36 7 -36 45 0 25 -12
24 -28 -2z"/>
<path d="M6057 4003 c-15 -14 -7 -43 12 -43 26 0 36 17 21 35 -14 16 -23 19
-33 8z"/>
<path d="M7345 3955 c-5 -2 -22 -6 -37 -9 -30 -7 -29 -36 2 -36 13 0 20 -14
29 -62 7 -35 15 -71 17 -81 4 -13 -1 -20 -16 -24 -30 -8 -22 -39 10 -35 75 8
90 13 90 32 0 13 -5 17 -19 13 -20 -5 -19 -9 -51 150 -6 31 -12 57 -13 56 -1
0 -6 -2 -12 -4z"/>
<path d="M5630 3937 c0 -9 9 -19 20 -22 14 -4 19 -13 16 -23 -3 -9 -10 -47
-17 -84 -9 -54 -15 -68 -29 -68 -10 0 -20 -6 -23 -14 -4 -9 6 -15 31 -20 63
-10 92 -7 92 9 0 8 -6 15 -14 15 -26 0 -27 17 -9 109 9 50 14 93 11 96 -3 3
-22 9 -42 12 -28 4 -36 2 -36 -10z"/>
<path d="M7213 3933 c-35 -3 -43 -8 -43 -24 0 -10 7 -19 15 -19 8 0 15 -8 15
-18 0 -33 -23 -132 -30 -132 -12 0 -69 135 -59 138 5 2 9 13 9 24 0 14 -5 18
-16 14 -9 -3 -33 -6 -55 -6 -41 0 -54 -21 -24 -37 12 -7 12 -20 3 -81 -6 -39
-14 -72 -19 -72 -4 0 -22 30 -39 67 -28 60 -30 69 -16 79 38 27 12 41 -53 28
-31 -7 -44 -34 -15 -34 10 0 33 -37 64 -104 41 -88 52 -104 68 -99 14 3 22 17
26 41 17 95 28 142 34 142 4 0 23 -36 42 -80 28 -64 39 -80 56 -80 19 0 23 10
38 83 9 45 16 93 16 105 0 15 7 26 20 29 18 5 30 45 13 41 -5 -1 -27 -3 -50
-5z"/>
<path d="M5796 3897 c-14 -14 -26 -32 -26 -40 0 -28 41 -66 90 -82 55 -18 63
-26 54 -49 -14 -37 -101 -25 -111 14 -6 22 -43 28 -43 8 0 -7 -3 -23 -6 -34
-6 -23 2 -26 111 -40 51 -7 95 23 95 65 0 35 -24 57 -83 77 -57 19 -75 38 -57
59 7 8 22 15 34 15 27 0 66 -27 66 -46 0 -8 9 -14 20 -14 17 0 20 7 20 40 0
35 -3 40 -22 39 -13 0 -44 3 -70 7 -41 6 -49 4 -72 -19z"/>
<path d="M6007 3881 c-4 -16 0 -21 14 -21 16 0 19 -8 19 -54 0 -81 -9 -116
-31 -116 -12 0 -19 -7 -19 -20 0 -18 7 -20 60 -20 47 0 60 3 60 15 0 8 -9 15
-20 15 -23 0 -23 6 -12 133 6 65 5 77 -8 77 -8 0 -25 3 -36 6 -16 4 -23 0 -27
-15z"/>
<path d="M6160 3876 c0 -7 9 -16 20 -19 17 -4 20 -13 20 -69 0 -82 -8 -108
-31 -108 -11 0 -19 -6 -19 -14 0 -20 109 -33 121 -14 14 21 11 28 -11 28 -18
0 -20 7 -20 69 0 61 3 72 22 85 12 9 35 16 50 16 36 0 43 -27 34 -131 l-6 -79
45 0 c33 0 45 4 45 15 0 8 -9 15 -20 15 -18 0 -20 8 -22 97 -3 94 -4 98 -30
112 -27 16 -30 15 -100 -14 -13 -5 -18 -2 -18 9 0 12 -10 16 -40 16 -27 0 -40
-4 -40 -14z"/>
<path d="M6509 3865 c-40 -22 -59 -58 -59 -116 0 -45 4 -55 34 -85 28 -28 41
-34 78 -34 24 0 53 7 64 15 31 23 40 18 36 -20 -6 -49 -45 -79 -92 -71 -19 3
-44 7 -55 8 -28 4 -31 -28 -3 -36 42 -11 108 -6 139 10 49 25 59 64 52 198 -6
114 -6 116 15 116 13 0 22 6 22 15 0 11 -11 15 -40 15 -29 0 -40 -4 -40 -15 0
-18 -8 -18 -40 0 -32 18 -78 18 -111 0z m126 -50 c50 -49 20 -137 -52 -151
-45 -9 -93 38 -93 91 0 76 91 115 145 60z"/>
</g>
</svg>
